<?xml version="1.0" encoding="UTF-8" standalone="no"?>
<svg
   xmlns:dc="http://purl.org/dc/elements/1.1/"
   xmlns:cc="http://creativecommons.org/ns#"
   xmlns:rdf="http://www.w3.org/1999/02/22-rdf-syntax-ns#"
   xmlns:svg="http://www.w3.org/2000/svg"
   xmlns="http://www.w3.org/2000/svg"
   xmlns:sodipodi="http://sodipodi.sourceforge.net/DTD/sodipodi-0.dtd"
   xmlns:inkscape="http://www.inkscape.org/namespaces/inkscape"
   version="1.2"
   width="499"
   height="149.15584"
   viewBox="0 0 499 149.15584"
   stroke-linecap="butt"
   stroke-linejoin="round"
   id="svg238"
   sodipodi:docname="1fkey.svg"
   inkscape:version="1.0.2 (e86c8708, 2021-01-15)">
  <metadata
     id="metadata244">
    <rdf:RDF>
      <cc:Work
         rdf:about="">
        <dc:format>image/svg+xml</dc:format>
        <dc:type
           rdf:resource="http://purl.org/dc/dcmitype/StillImage" />
        <dc:title />
      </cc:Work>
    </rdf:RDF>
  </metadata>
  <defs
     id="defs242" />
  <sodipodi:namedview
     pagecolor="#ffffff"
     bordercolor="#666666"
     borderopacity="1"
     objecttolerance="10"
     gridtolerance="10"
     guidetolerance="10"
     inkscape:pageopacity="0"
     inkscape:pageshadow="2"
     inkscape:window-width="1244"
     inkscape:window-height="690"
     id="namedview240"
     showgrid="false"
     inkscape:zoom="1.2681802"
     inkscape:cx="312.06392"
     inkscape:cy="64.780841"
     inkscape:window-x="0"
     inkscape:window-y="23"
     inkscape:window-maximized="0"
     inkscape:current-layer="layer46"
     inkscape:document-rotation="0"
     fit-margin-top="0"
     fit-margin-left="0"
     fit-margin-right="0"
     fit-margin-bottom="0" />
  <style
     id="style10">
  path {shape-rendering: crispEdges;}
</style>
  <g
     id="layer43"
     transform="translate(-0.5,-7.75)">
    <path
       d="m 15.94,90.64 v -1.93 h 4.98 v 1.93 z"
       fill="#dddddd"
       id="path14" />
    <path
       d="m 20.92,90.64 v -0.96 h 4.98 v 0.96 z"
       fill="#dddddd"
       id="path16" />
    <path
       d="m 25.9,90.64 v -1.93 h 4.98 v 1.93 z"
       fill="#dddddd"
       id="path18" />
    <path
       d="m 35.86,90.64 v -0.96 h 4.98 v 0.96 z"
       fill="#dddddd"
       id="path20" />
    <path
       d="m 45.82,90.64 v -1.93 h 4.98 v 1.93 z"
       fill="#dddddd"
       id="path22" />
    <path
       d="m 50.8,90.64 v -0.96 h 4.98 v 0.96 z"
       fill="#dddddd"
       id="path24" />
    <path
       d="m 55.78,90.64 v -2.89 h 4.98 v 2.89 z"
       fill="#dddddd"
       id="path26" />
    <path
       d="m 60.76,90.64 v -1.93 h 4.98 v 1.93 z"
       fill="#dddddd"
       id="path28" />
    <path
       d="m 65.74,90.64 v -2.89 h 4.98 v 2.89 z"
       fill="#dddddd"
       id="path30" />
    <path
       d="m 70.72,90.64 v -2.89 h 4.98 v 2.89 z"
       fill="#dddddd"
       id="path32" />
    <path
       d="m 75.7,90.64 v -5.78 h 4.98 v 5.78 z"
       fill="#dddddd"
       id="path34" />
    <path
       d="m 80.68,90.64 v -5.78 h 4.98 v 5.78 z"
       fill="#dddddd"
       id="path36" />
    <path
       d="m 85.66,90.64 v -4.82 h 4.98 v 4.82 z"
       fill="#dddddd"
       id="path38" />
    <path
       d="m 90.64,90.64 v -8.67 h 4.98 v 8.67 z"
       fill="#dddddd"
       id="path40" />
    <path
       d="m 95.62,90.64 v -6.75 h 4.98 v 6.75 z"
       fill="#dddddd"
       id="path42" />
    <path
       d="M 100.6,90.64 V 79.07 h 4.98 v 11.57 z"
       fill="#dddddd"
       id="path44" />
    <path
       d="M 105.58,90.64 V 72.33 h 4.98 v 18.31 z"
       fill="#dddddd"
       id="path46" />
    <path
       d="M 110.56,90.64 V 73.29 h 4.98 v 17.35 z"
       fill="#dddddd"
       id="path48" />
    <path
       d="M 115.54,90.64 V 70.4 h 4.98 v 20.24 z"
       fill="#dddddd"
       id="path50" />
    <path
       d="M 120.52,90.64 V 64.62 h 4.98 v 26.02 z"
       fill="#dddddd"
       id="path52" />
    <path
       d="M 125.5,90.64 V 67.51 h 4.98 v 23.13 z"
       fill="#dddddd"
       id="path54" />
    <path
       d="M 130.48,90.64 V 64.62 h 4.98 v 26.02 z"
       fill="#dddddd"
       id="path56" />
    <path
       d="M 135.46,90.64 V 56.9 h 4.98 v 33.74 z"
       fill="#dddddd"
       id="path58" />
    <path
       d="M 140.44,90.64 V 46.3 h 4.98 v 44.34 z"
       fill="#dddddd"
       id="path60" />
    <path
       d="M 145.42,90.64 V 43.41 h 4.98 v 47.23 z"
       fill="#dddddd"
       id="path62" />
    <path
       d="M 150.4,90.64 V 44.37 h 4.98 v 46.27 z"
       fill="#dddddd"
       id="path64" />
    <path
       d="M 155.38,90.64 V 51.12 h 4.98 v 39.52 z"
       fill="#dddddd"
       id="path66" />
    <path
       d="M 160.36,90.64 V 52.09 h 4.98 v 38.55 z"
       fill="#dddddd"
       id="path68" />
    <path
       d="M 165.34,90.64 V 43.41 h 4.98 v 47.23 z"
       fill="#dddddd"
       id="path70" />
    <path
       d="M 170.32,90.64 V 42.45 h 4.98 v 48.19 z"
       fill="#dddddd"
       id="path72" />
    <path
       d="m 175.3,90.64 v -55.9 h 4.98 v 55.9 z"
       fill="#dddddd"
       id="path74" />
    <path
       d="m 180.28,90.64 v -69.4 h 4.98 v 69.4 z"
       fill="#dddddd"
       id="path76" />
    <path
       d="M 185.26,90.64 V 23.17 h 4.98 v 67.47 z"
       fill="#dddddd"
       id="path78" />
    <path
       d="M 190.24,90.64 V 29.92 h 4.98 v 60.72 z"
       fill="#dddddd"
       id="path80" />
    <path
       d="M 195.22,90.64 V 24.13 h 4.98 v 66.51 z"
       fill="#dddddd"
       id="path82" />
    <path
       d="M 200.2,90.64 V 27.99 h 4.98 v 62.65 z"
       fill="#dddddd"
       id="path84" />
    <path
       d="M 205.18,90.64 V 18.35 h 4.98 v 72.29 z"
       fill="#dddddd"
       id="path86" />
    <path
       d="M 210.16,90.64 V 12.57 h 4.98 v 78.07 z"
       fill="#dddddd"
       id="path88" />
    <path
       d="M 215.14,90.64 V 30.88 h 4.98 v 59.76 z"
       fill="#dddddd"
       id="path90" />
    <path
       d="M 220.12,90.64 V 26.06 h 4.98 v 64.58 z"
       fill="#dddddd"
       id="path92" />
    <path
       d="M 225.1,90.64 V 36.66 h 4.98 v 53.98 z"
       fill="#dddddd"
       id="path94" />
    <path
       d="M 230.08,90.64 V 24.13 h 4.98 v 66.51 z"
       fill="#dddddd"
       id="path96" />
    <path
       d="M 235.06,90.64 V 7.75 h 4.98 v 82.89 z"
       fill="#dddddd"
       id="path98" />
    <path
       d="M 240.04,90.64 V 23.17 h 4.98 v 67.47 z"
       fill="#dddddd"
       id="path100" />
    <path
       d="M 245.02,90.64 V 25.1 H 250 v 65.54 z"
       fill="#dddddd"
       id="path102" />
    <path
       d="M 250,90.64 V 17.39 h 4.98 v 73.25 z"
       fill="#dddddd"
       id="path104" />
    <path
       d="M 254.98,90.64 V 38.59 h 4.98 v 52.05 z"
       fill="#dddddd"
       id="path106" />
    <path
       d="M 259.96,90.64 V 12.57 h 4.98 v 78.07 z"
       fill="#dddddd"
       id="path108" />
    <path
       d="M 264.94,90.64 V 17.39 h 4.98 v 73.25 z"
       fill="#dddddd"
       id="path110" />
    <path
       d="m 269.92,90.64 v -58.8 h 4.98 v 58.8 z"
       fill="#dddddd"
       id="path112" />
    <path
       d="M 274.9,90.64 V 36.66 h 4.98 v 53.98 z"
       fill="#dddddd"
       id="path114" />
    <path
       d="m 279.88,90.64 v -55.9 h 4.98 v 55.9 z"
       fill="#dddddd"
       id="path116" />
    <path
       d="M 284.86,90.64 V 19.31 h 4.98 v 71.33 z"
       fill="#dddddd"
       id="path118" />
    <path
       d="M 289.84,90.64 V 38.59 h 4.98 v 52.05 z"
       fill="#dddddd"
       id="path120" />
    <path
       d="M 294.82,90.64 V 40.52 h 4.98 v 50.12 z"
       fill="#dddddd"
       id="path122" />
    <path
       d="M 299.8,90.64 V 41.48 h 4.98 v 49.16 z"
       fill="#dddddd"
       id="path124" />
    <path
       d="M 304.78,90.64 V 44.37 h 4.98 v 46.27 z"
       fill="#dddddd"
       id="path126" />
    <path
       d="M 309.76,90.64 V 41.48 h 4.98 v 49.16 z"
       fill="#dddddd"
       id="path128" />
    <path
       d="M 314.74,90.64 V 49.19 h 4.98 v 41.45 z"
       fill="#dddddd"
       id="path130" />
    <path
       d="m 319.72,90.64 v -45.3 h 4.98 v 45.3 z"
       fill="#dddddd"
       id="path132" />
    <path
       d="M 324.7,90.64 V 43.41 h 4.98 v 47.23 z"
       fill="#dddddd"
       id="path134" />
    <path
       d="M 329.68,90.64 V 47.27 h 4.98 v 43.37 z"
       fill="#dddddd"
       id="path136" />
    <path
       d="M 334.66,90.64 V 52.09 h 4.98 v 38.55 z"
       fill="#dddddd"
       id="path138" />
    <path
       d="M 339.64,90.64 V 48.23 h 4.98 v 42.41 z"
       fill="#dddddd"
       id="path140" />
    <path
       d="M 344.62,90.64 V 62.69 h 4.98 v 27.95 z"
       fill="#dddddd"
       id="path142" />
    <path
       d="M 349.6,90.64 V 54.98 h 4.98 v 35.66 z"
       fill="#dddddd"
       id="path144" />
    <path
       d="M 354.58,90.64 V 56.9 h 4.98 v 33.74 z"
       fill="#dddddd"
       id="path146" />
    <path
       d="M 359.56,90.64 V 68.47 h 4.98 v 22.17 z"
       fill="#dddddd"
       id="path148" />
    <path
       d="M 364.54,90.64 V 70.4 h 4.98 v 20.24 z"
       fill="#dddddd"
       id="path150" />
    <path
       d="m 369.52,90.64 v -24.1 h 4.98 v 24.1 z"
       fill="#dddddd"
       id="path152" />
    <path
       d="M 374.5,90.64 V 71.36 h 4.98 v 19.28 z"
       fill="#dddddd"
       id="path154" />
    <path
       d="M 379.48,90.64 V 67.51 h 4.98 v 23.13 z"
       fill="#dddddd"
       id="path156" />
    <path
       d="M 384.46,90.64 V 64.62 h 4.98 v 26.02 z"
       fill="#dddddd"
       id="path158" />
    <path
       d="M 389.44,90.64 V 68.47 h 4.98 v 22.17 z"
       fill="#dddddd"
       id="path160" />
    <path
       d="M 394.42,90.64 V 74.25 h 4.98 v 16.39 z"
       fill="#dddddd"
       id="path162" />
    <path
       d="M 399.4,90.64 V 77.15 h 4.98 v 13.49 z"
       fill="#dddddd"
       id="path164" />
    <path
       d="M 404.38,90.64 V 75.22 h 4.98 v 15.42 z"
       fill="#dddddd"
       id="path166" />
    <path
       d="M 409.36,90.64 V 73.29 h 4.98 v 17.35 z"
       fill="#dddddd"
       id="path168" />
    <path
       d="M 414.34,90.64 V 73.29 h 4.98 v 17.35 z"
       fill="#dddddd"
       id="path170" />
    <path
       d="M 419.32,90.64 V 79.07 h 4.98 v 11.57 z"
       fill="#dddddd"
       id="path172" />
    <path
       d="M 424.3,90.64 V 81 h 4.98 v 9.64 z"
       fill="#dddddd"
       id="path174" />
    <path
       d="m 429.28,90.64 v -5.78 h 4.98 v 5.78 z"
       fill="#dddddd"
       id="path176" />
    <path
       d="m 434.26,90.64 v -10.6 h 4.98 v 10.6 z"
       fill="#dddddd"
       id="path178" />
    <path
       d="m 439.24,90.64 v -7.71 h 4.98 v 7.71 z"
       fill="#dddddd"
       id="path180" />
    <path
       d="M 444.22,90.64 V 79.07 h 4.98 v 11.57 z"
       fill="#dddddd"
       id="path182" />
    <path
       d="m 449.2,90.64 v -8.67 h 4.98 v 8.67 z"
       fill="#dddddd"
       id="path184" />
    <path
       d="m 454.18,90.64 v -5.78 h 4.98 v 5.78 z"
       fill="#dddddd"
       id="path186" />
    <path
       d="m 459.16,90.64 v -3.86 h 4.98 v 3.86 z"
       fill="#dddddd"
       id="path188" />
    <path
       d="m 464.14,90.64 v -4.82 h 4.98 v 4.82 z"
       fill="#dddddd"
       id="path190" />
    <path
       d="m 469.12,90.64 v -6.75 h 4.98 v 6.75 z"
       fill="#dddddd"
       id="path192" />
    <path
       d="m 474.1,90.64 v -6.75 h 4.98 v 6.75 z"
       fill="#dddddd"
       id="path194" />
    <path
       d="m 479.08,90.64 v -3.86 h 4.98 v 3.86 z"
       fill="#dddddd"
       id="path196" />
    <path
       d="m 484.06,90.64 v -0.96 h 4.98 v 0.96 z"
       fill="#dddddd"
       id="path198" />
    <path
       d="m 489.04,90.64 v -7.71 h 4.98 v 7.71 z"
       fill="#dddddd"
       id="path200" />
    <path
       d="M 494.02,90.64 V 86.78 H 499 v 3.86 z"
       fill="#dddddd"
       id="path202" />
  </g>
  <g
     id="layer44"
     transform="translate(-0.5,-7.75)">
    <path
       d="m 1,100.6 v -9.96 h 124.5 v 9.96 z"
       fill="#002051"
       id="path205" />
    <path
       d="M 125.5,100.6 V 90.64 H 250 v 9.96 z"
       fill="#575c6e"
       id="path207" />
    <path
       d="m 250,100.6 v -9.96 h 124.5 v 9.96 z"
       fill="#a49d78"
       id="path209" />
    <path
       d="M 374.5,100.6 V 90.64 H 499 v 9.96 z"
       fill="#fdea45"
       id="path211" />
    <g
       id="g213" />
  </g>
  <g
     id="layer45"
     fill="none"
     stroke="#000000"
     stroke-width="1"
     transform="translate(-0.5,-7.75)">
    <path
       d="m 1,90.64 v 15.94"
       stroke="rgba(0,0,0,0.3)"
       id="path216" />
    <path
       d="m 125.5,90.64 v 15.94"
       stroke="rgba(0,0,0,0.3)"
       id="path218" />
    <path
       d="m 250,90.64 v 15.94"
       stroke="rgba(0,0,0,0.3)"
       id="path220" />
    <path
       d="m 374.5,90.64 v 15.94"
       stroke="rgba(0,0,0,0.3)"
       id="path222" />
    <path
       d="m 499,90.64 v 15.94"
       stroke="rgba(0,0,0,0.3)"
       id="path224" />
  </g>
  <g
     id="layer46"
     font-family="sans-serif"
     font-size="12px"
     text-anchor="middle"
     transform="translate(-0.5,-7.75)">
    <text
       y="0"
       x="0"
       transform="translate(1,119.6236)"
       font-family="sans-serif"
       font-size="13px"
       text-anchor="start"
       fill="#555555"
       id="text227">0</text>
    <text
       y="0"
       x="0"
       transform="translate(125.5,119.6236)"
       font-family="sans-serif"
       font-size="13px"
       text-anchor="middle"
       fill="#555555"
       id="text229">25%</text>
    <text
       y="0"
       x="0"
       transform="translate(250,119.6236)"
       font-family="sans-serif"
       font-size="13px"
       text-anchor="middle"
       fill="#555555"
       id="text231">50%</text>
    <text
       y="0"
       x="0"
       transform="translate(374.5,119.6236)"
       font-family="sans-serif"
       font-size="13px"
       text-anchor="middle"
       fill="#555555"
       id="text233">75%</text>
    <text
       y="0"
       x="0"
       transform="translate(499,119.6236)"
       font-family="sans-serif"
       font-size="13px"
       text-anchor="end"
       fill="#555555"
       id="text235">100%</text>
  </g>
</svg>
