<?xml version="1.0"?>
<svg xmlns="http://www.w3.org/2000/svg" version="1.2" baseProfile="tiny" width="300" height="31" viewBox="0 0 300 31" stroke-linecap="butt" stroke-linejoin="round">
<style>
  path {shape-rendering: crispEdges;}
</style>
<g id="layer37">
<path d="M 1 10.93 1 1 60.6 1 60.6 10.93 1 10.93 Z" fill="#000004"/>
<path d="M 60.6 10.93 60.6 1 120.2 1 120.2 10.93 60.6 10.93 Z" fill="#57106e"/>
<path d="M 120.2 10.93 120.2 1 179.8 1 179.8 10.93 120.2 10.93 Z" fill="#bc3754"/>
<path d="M 179.8 10.93 179.8 1 239.4 1 239.4 10.93 179.8 10.93 Z" fill="#f98e09"/>
<path d="M 239.4 10.93 239.4 1 299 1 299 10.93 239.4 10.93 Z" fill="#fcffa4"/>
</g>
<g id="layer38" fill="none" stroke="black" stroke-width="1">
<path d="M 60.6 1 60.6 16.89" stroke="rgba(0,0,0,0.3)"/>
<path d="M 120.2 1 120.2 16.89" stroke="rgba(0,0,0,0.3)"/>
<path d="M 179.8 1 179.8 16.89" stroke="rgba(0,0,0,0.3)"/>
<path d="M 239.4 1 239.4 16.89" stroke="rgba(0,0,0,0.3)"/>
</g>
<g id="layer39" font-family="sans-serif" font-size="12" text-anchor="middle">
<text y="0" x="0" transform="translate(60.6 29.906)" font-family="sans-serif" font-size="13" text-anchor="middle" fill="#555">0.08</text>
<text y="0" x="0" transform="translate(120.2 29.906)" font-family="sans-serif" font-size="13" text-anchor="middle" fill="#555">0.16</text>
<text y="0" x="0" transform="translate(179.8 29.906)" font-family="sans-serif" font-size="13" text-anchor="middle" fill="#555">0.26</text>
<text y="0" x="0" transform="translate(239.4 29.906)" font-family="sans-serif" font-size="13" text-anchor="middle" fill="#555">0.5</text>
</g>
</svg>