<?xml version="1.0"?>
<svg xmlns="http://www.w3.org/2000/svg" version="1.2" baseProfile="tiny" width="500" height="78" viewBox="0 0 500 78" stroke-linecap="butt" stroke-linejoin="round">
<style>
  path {shape-rendering: crispEdges;}
</style>
<g id="layer33">
<path d="M 1 58.37 1 1 4.19 1 4.19 58.37 1 58.37 Z" fill="#ddd"/>
<path d="M 10.56 58.37 10.56 47.11 13.75 47.11 13.75 58.37 10.56 58.37 Z" fill="#ddd"/>
<path d="M 20.12 58.37 20.12 52.16 23.31 52.16 23.31 58.37 20.12 58.37 Z" fill="#ddd"/>
<path d="M 29.68 58.37 29.68 55.38 32.87 55.38 32.87 58.37 29.68 58.37 Z" fill="#ddd"/>
<path d="M 39.25 58.37 39.25 55.93 42.43 55.93 42.43 58.37 39.25 58.37 Z" fill="#ddd"/>
<path d="M 48.81 58.37 48.81 56.68 52 56.68 52 58.37 48.81 58.37 Z" fill="#ddd"/>
<path d="M 58.37 58.37 58.37 57.07 61.56 57.07 61.56 58.37 58.37 58.37 Z" fill="#ddd"/>
<path d="M 67.93 58.37 67.93 57.43 71.12 57.43 71.12 58.37 67.93 58.37 Z" fill="#ddd"/>
<path d="M 80.68 58.37 80.68 57.68 83.87 57.68 83.87 58.37 80.68 58.37 Z" fill="#ddd"/>
<path d="M 90.24 58.37 90.24 57.76 93.43 57.76 93.43 58.37 90.24 58.37 Z" fill="#ddd"/>
<path d="M 99.8 58.37 99.8 57.84 102.99 57.84 102.99 58.37 99.8 58.37 Z" fill="#ddd"/>
<path d="M 109.36 58.37 109.36 57.9 112.55 57.9 112.55 58.37 109.36 58.37 Z" fill="#ddd"/>
<path d="M 118.93 58.37 118.93 57.87 122.11 57.87 122.11 58.37 118.93 58.37 Z" fill="#ddd"/>
<path d="M 128.49 58.37 128.49 58.18 131.68 58.18 131.68 58.37 128.49 58.37 Z" fill="#ddd"/>
<path d="M 138.05 58.37 138.05 58.2 141.24 58.2 141.24 58.37 138.05 58.37 Z" fill="#ddd"/>
<path d="M 147.61 58.37 147.61 58.15 150.8 58.15 150.8 58.37 147.61 58.37 Z" fill="#ddd"/>
<path d="M 160.36 58.37 160.36 57.98 163.55 57.98 163.55 58.37 160.36 58.37 Z" fill="#ddd"/>
<path d="M 169.92 58.37 169.92 58.23 173.11 58.23 173.11 58.37 169.92 58.37 Z" fill="#ddd"/>
<path d="M 179.48 58.37 179.48 58.31 182.67 58.31 182.67 58.37 179.48 58.37 Z" fill="#ddd"/>
<path d="M 189.04 58.37 189.04 58.23 192.23 58.23 192.23 58.37 189.04 58.37 Z" fill="#ddd"/>
<path d="M 198.61 58.37 198.61 58.2 201.79 58.2 201.79 58.37 198.61 58.37 Z" fill="#ddd"/>
<path d="M 208.17 58.37 208.17 58.26 211.36 58.26 211.36 58.37 208.17 58.37 Z" fill="#ddd"/>
<path d="M 217.73 58.37 217.73 58.34 220.92 58.34 220.92 58.37 217.73 58.37 Z" fill="#ddd"/>
<path d="M 227.29 58.37 227.29 58.29 230.48 58.29 230.48 58.37 227.29 58.37 Z" fill="#ddd"/>
<path d="M 259.16 58.37 259.16 58.31 262.35 58.31 262.35 58.37 259.16 58.37 Z" fill="#ddd"/>
<path d="M 287.85 58.37 287.85 58.34 291.04 58.34 291.04 58.37 287.85 58.37 Z" fill="#ddd"/>
<path d="M 306.97 58.37 306.97 58.34 310.16 58.34 310.16 58.37 306.97 58.37 Z" fill="#ddd"/>
<path d="M 316.53 58.37 316.53 58.34 319.72 58.34 319.72 58.37 316.53 58.37 Z" fill="#ddd"/>
</g>
<g id="layer34">
<path d="M 1 64.74 1 58.37 80.68 58.37 80.68 64.74 1 64.74 Z" fill="#000004"/>
<path d="M 80.68 64.74 80.68 58.37 160.36 58.37 160.36 64.74 80.68 64.74 Z" fill="#57106e"/>
<path d="M 160.36 64.74 160.36 58.37 259.96 58.37 259.96 64.74 160.36 64.74 Z" fill="#bc3754"/>
<path d="M 259.96 64.74 259.96 58.37 499 58.37 499 64.74 259.96 64.74 Z" fill="#f98e09"/>
<path d="M 499 64.74 319.72 64.74 319.72 58.37 499 58.37 499 64.74 Z" fill="#fcffa4"/>
<g/>
</g>
<g id="layer35" fill="none" stroke="black" stroke-width="1">
<path d="M 1 58.37 1 68.57" stroke="rgba(0,0,0,0.3)"/>
<path d="M 80.68 58.37 80.68 68.57" stroke="rgba(0,0,0,0.3)"/>
<path d="M 160.36 58.37 160.36 68.57" stroke="rgba(0,0,0,0.3)"/>
<path d="M 259.96 58.37 259.96 68.57" stroke="rgba(0,0,0,0.3)"/>
<path d="M 499 58.37 499 68.57" stroke="rgba(0,0,0,0.3)"/>
<path d="M 319.72 58.37 319.72 68.57" stroke="rgba(0,0,0,0.3)"/>
</g>
<g id="layer36" font-family="sans-serif" font-size="12" text-anchor="middle">
<text y="0" x="0" transform="translate(1 76.9191)" font-family="sans-serif" font-size="13" text-anchor="start" fill="#555">0</text>
<text y="0" x="0" transform="translate(80.68 76.9191)" font-family="sans-serif" font-size="13" text-anchor="middle" fill="#555">0.08</text>
<text y="0" x="0" transform="translate(160.36 76.9191)" font-family="sans-serif" font-size="13" text-anchor="middle" fill="#555">0.16</text>
<text y="0" x="0" transform="translate(259.96 76.9191)" font-family="sans-serif" font-size="13" text-anchor="middle" fill="#555">0.26</text>
<text y="0" x="0" transform="translate(499 76.9191)" font-family="sans-serif" font-size="13" text-anchor="end" fill="#555">0.5</text>
<text y="0" x="0" transform="translate(319.72 76.9191)" font-family="sans-serif" font-size="13" text-anchor="end" fill="#555">0.32</text>
</g>
</svg>