<?xml version="1.0"?>
<svg xmlns="http://www.w3.org/2000/svg" version="1.2" baseProfile="tiny" width="500" height="121" viewBox="0 0 500 121" stroke-linecap="butt" stroke-linejoin="round">
<style>
  path {shape-rendering: crispEdges;}
</style>
<g id="layer25">
<path d="M 1 90.64 1 1 5.98 1 5.98 90.64 1 90.64 Z" fill="#ddd"/>
<path d="M 5.98 90.64 5.98 17.63 10.96 17.63 10.96 90.64 5.98 90.64 Z" fill="#ddd"/>
<path d="M 10.96 90.64 10.96 39.12 15.94 39.12 15.94 90.64 10.96 90.64 Z" fill="#ddd"/>
<path d="M 15.94 90.64 15.94 53.91 20.92 53.91 20.92 90.64 15.94 90.64 Z" fill="#ddd"/>
<path d="M 20.92 90.64 20.92 51.13 25.9 51.13 25.9 90.64 20.92 90.64 Z" fill="#ddd"/>
<path d="M 25.9 90.64 25.9 62.45 30.88 62.45 30.88 90.64 25.9 90.64 Z" fill="#ddd"/>
<path d="M 30.88 90.64 30.88 63.38 35.86 63.38 35.86 90.64 30.88 90.64 Z" fill="#ddd"/>
<path d="M 35.86 90.64 35.86 64.07 40.84 64.07 40.84 90.64 35.86 90.64 Z" fill="#ddd"/>
<path d="M 40.84 90.64 40.84 66.61 45.82 66.61 45.82 90.64 40.84 90.64 Z" fill="#ddd"/>
<path d="M 45.82 90.64 45.82 68.69 50.8 68.69 50.8 90.64 45.82 90.64 Z" fill="#ddd"/>
<path d="M 50.8 90.64 50.8 69.62 55.78 69.62 55.78 90.64 50.8 90.64 Z" fill="#ddd"/>
<path d="M 55.78 90.64 55.78 70.31 60.76 70.31 60.76 90.64 55.78 90.64 Z" fill="#ddd"/>
<path d="M 60.76 90.64 60.76 73.54 65.74 73.54 65.74 90.64 60.76 90.64 Z" fill="#ddd"/>
<path d="M 65.74 90.64 65.74 72.16 70.72 72.16 70.72 90.64 65.74 90.64 Z" fill="#ddd"/>
<path d="M 75.7 90.64 75.7 78.16 80.68 78.16 80.68 90.64 75.7 90.64 Z" fill="#ddd"/>
<path d="M 80.68 90.64 80.68 73.31 85.66 73.31 85.66 90.64 80.68 90.64 Z" fill="#ddd"/>
<path d="M 85.66 90.64 85.66 72.16 90.64 72.16 90.64 90.64 85.66 90.64 Z" fill="#ddd"/>
<path d="M 90.64 90.64 90.64 77.7 95.62 77.7 95.62 90.64 90.64 90.64 Z" fill="#ddd"/>
<path d="M 95.62 90.64 95.62 77.01 100.6 77.01 100.6 90.64 95.62 90.64 Z" fill="#ddd"/>
<path d="M 100.6 90.64 100.6 80.94 105.58 80.94 105.58 90.64 100.6 90.64 Z" fill="#ddd"/>
<path d="M 105.58 90.64 105.58 80.01 110.56 80.01 110.56 90.64 105.58 90.64 Z" fill="#ddd"/>
<path d="M 110.56 90.64 110.56 80.24 115.54 80.24 115.54 90.64 110.56 90.64 Z" fill="#ddd"/>
<path d="M 115.54 90.64 115.54 79.78 120.52 79.78 120.52 90.64 115.54 90.64 Z" fill="#ddd"/>
<path d="M 120.52 90.64 120.52 80.94 125.5 80.94 125.5 90.64 120.52 90.64 Z" fill="#ddd"/>
<path d="M 125.5 90.64 125.5 82.32 130.48 82.32 130.48 90.64 125.5 90.64 Z" fill="#ddd"/>
<path d="M 130.48 90.64 130.48 81.17 135.46 81.17 135.46 90.64 130.48 90.64 Z" fill="#ddd"/>
<path d="M 135.46 90.64 135.46 84.63 140.44 84.63 140.44 90.64 135.46 90.64 Z" fill="#ddd"/>
<path d="M 145.42 90.64 145.42 83.48 150.4 83.48 150.4 90.64 145.42 90.64 Z" fill="#ddd"/>
<path d="M 150.4 90.64 150.4 83.71 155.38 83.71 155.38 90.64 150.4 90.64 Z" fill="#ddd"/>
<path d="M 155.38 90.64 155.38 84.63 160.36 84.63 160.36 90.64 155.38 90.64 Z" fill="#ddd"/>
<path d="M 160.36 90.64 160.36 84.4 165.34 84.4 165.34 90.64 160.36 90.64 Z" fill="#ddd"/>
<path d="M 165.34 90.64 165.34 83.48 170.32 83.48 170.32 90.64 165.34 90.64 Z" fill="#ddd"/>
<path d="M 170.32 90.64 170.32 86.94 175.3 86.94 175.3 90.64 170.32 90.64 Z" fill="#ddd"/>
<path d="M 175.3 90.64 175.3 86.48 180.28 86.48 180.28 90.64 175.3 90.64 Z" fill="#ddd"/>
<path d="M 180.28 90.64 180.28 85.79 185.26 85.79 185.26 90.64 180.28 90.64 Z" fill="#ddd"/>
<path d="M 185.26 90.64 185.26 86.25 190.24 86.25 190.24 90.64 185.26 90.64 Z" fill="#ddd"/>
<path d="M 190.24 90.64 190.24 86.71 195.22 86.71 195.22 90.64 190.24 90.64 Z" fill="#ddd"/>
<path d="M 195.22 90.64 195.22 86.71 200.2 86.71 200.2 90.64 195.22 90.64 Z" fill="#ddd"/>
<path d="M 200.2 90.64 200.2 88.79 205.18 88.79 205.18 90.64 200.2 90.64 Z" fill="#ddd"/>
<path d="M 205.18 90.64 205.18 89.72 210.16 89.72 210.16 90.64 205.18 90.64 Z" fill="#ddd"/>
<path d="M 215.14 90.64 215.14 88.1 220.12 88.1 220.12 90.64 215.14 90.64 Z" fill="#ddd"/>
<path d="M 220.12 90.64 220.12 87.87 225.1 87.87 225.1 90.64 220.12 90.64 Z" fill="#ddd"/>
<path d="M 225.1 90.64 225.1 87.87 230.08 87.87 230.08 90.64 225.1 90.64 Z" fill="#ddd"/>
<path d="M 230.08 90.64 230.08 88.56 235.06 88.56 235.06 90.64 230.08 90.64 Z" fill="#ddd"/>
<path d="M 235.06 90.64 235.06 88.1 240.04 88.1 240.04 90.64 235.06 90.64 Z" fill="#ddd"/>
<path d="M 240.04 90.64 240.04 89.25 245.02 89.25 245.02 90.64 240.04 90.64 Z" fill="#ddd"/>
<path d="M 245.02 90.64 245.02 88.79 250 88.79 250 90.64 245.02 90.64 Z" fill="#ddd"/>
<path d="M 250 90.64 250 89.48 254.98 89.48 254.98 90.64 250 90.64 Z" fill="#ddd"/>
<path d="M 254.98 90.64 254.98 89.02 259.96 89.02 259.96 90.64 254.98 90.64 Z" fill="#ddd"/>
<path d="M 259.96 90.64 259.96 90.18 264.94 90.18 264.94 90.64 259.96 90.64 Z" fill="#ddd"/>
<path d="M 264.94 90.64 264.94 89.95 269.92 89.95 269.92 90.64 264.94 90.64 Z" fill="#ddd"/>
<path d="M 269.92 90.64 269.92 89.25 274.9 89.25 274.9 90.64 269.92 90.64 Z" fill="#ddd"/>
<path d="M 274.9 90.64 274.9 89.72 279.88 89.72 279.88 90.64 274.9 90.64 Z" fill="#ddd"/>
<path d="M 279.88 90.64 279.88 88.79 284.86 88.79 284.86 90.64 279.88 90.64 Z" fill="#ddd"/>
<path d="M 289.84 90.64 289.84 89.95 294.82 89.95 294.82 90.64 289.84 90.64 Z" fill="#ddd"/>
<path d="M 294.82 90.64 294.82 89.25 299.8 89.25 299.8 90.64 294.82 90.64 Z" fill="#ddd"/>
<path d="M 299.8 90.64 299.8 89.95 304.78 89.95 304.78 90.64 299.8 90.64 Z" fill="#ddd"/>
<path d="M 304.78 90.64 304.78 89.95 309.76 89.95 309.76 90.64 304.78 90.64 Z" fill="#ddd"/>
<path d="M 309.76 90.64 309.76 89.48 314.74 89.48 314.74 90.64 309.76 90.64 Z" fill="#ddd"/>
<path d="M 314.74 90.64 314.74 89.72 319.72 89.72 319.72 90.64 314.74 90.64 Z" fill="#ddd"/>
<path d="M 319.72 90.64 319.72 90.18 324.7 90.18 324.7 90.64 319.72 90.64 Z" fill="#ddd"/>
<path d="M 334.66 90.64 334.66 90.18 339.64 90.18 339.64 90.64 334.66 90.64 Z" fill="#ddd"/>
<path d="M 344.62 90.64 344.62 90.41 349.6 90.41 349.6 90.64 344.62 90.64 Z" fill="#ddd"/>
<path d="M 359.56 90.64 359.56 90.41 364.54 90.41 364.54 90.64 359.56 90.64 Z" fill="#ddd"/>
<path d="M 364.54 90.64 364.54 90.41 369.52 90.41 369.52 90.64 364.54 90.64 Z" fill="#ddd"/>
<path d="M 374.5 90.64 374.5 89.95 379.48 89.95 379.48 90.64 374.5 90.64 Z" fill="#ddd"/>
<path d="M 394.42 90.64 394.42 90.18 399.4 90.18 399.4 90.64 394.42 90.64 Z" fill="#ddd"/>
<path d="M 399.4 90.64 399.4 90.41 404.38 90.41 404.38 90.64 399.4 90.64 Z" fill="#ddd"/>
<path d="M 419.32 90.64 419.32 90.41 424.3 90.41 424.3 90.64 419.32 90.64 Z" fill="#ddd"/>
<path d="M 454.18 90.64 454.18 90.41 459.16 90.41 459.16 90.64 454.18 90.64 Z" fill="#ddd"/>
<path d="M 464.14 90.64 464.14 90.41 469.12 90.41 469.12 90.64 464.14 90.64 Z" fill="#ddd"/>
<path d="M 479.08 90.64 479.08 90.41 484.06 90.41 484.06 90.64 479.08 90.64 Z" fill="#ddd"/>
<path d="M 494.02 90.64 494.02 90.41 499 90.41 499 90.64 494.02 90.64 Z" fill="#ddd"/>
</g>
<g id="layer26">
<path d="M 1 100.6 1 90.64 33.13 90.64 33.13 100.6 1 100.6 Z" fill="#f2f0f7"/>
<path d="M 33.13 100.6 33.13 90.64 59.9 90.64 59.9 100.6 33.13 100.6 Z" fill="#dadaeb"/>
<path d="M 59.9 100.6 59.9 90.64 81.32 90.64 81.32 100.6 59.9 100.6 Z" fill="#bcbddc"/>
<path d="M 81.32 100.6 81.32 90.64 118.81 90.64 118.81 100.6 81.32 100.6 Z" fill="#9e9ac8"/>
<path d="M 118.81 100.6 118.81 90.64 161.65 90.64 161.65 100.6 118.81 100.6 Z" fill="#807dba"/>
<path d="M 161.65 100.6 161.65 90.64 220.55 90.64 220.55 100.6 161.65 100.6 Z" fill="#6a51a3"/>
<path d="M 220.55 100.6 220.55 90.64 499 90.64 499 100.6 220.55 100.6 Z" fill="#4a1486"/>
<g/>
</g>
<g id="layer27" fill="none" stroke="black" stroke-width="1">
<path d="M 1 90.64 1 106.58" stroke="rgba(0,0,0,0.3)"/>
<path d="M 33.13 90.64 33.13 106.58" stroke="rgba(0,0,0,0.3)"/>
<path d="M 59.9 90.64 59.9 106.58" stroke="rgba(0,0,0,0.3)"/>
<path d="M 81.32 90.64 81.32 106.58" stroke="rgba(0,0,0,0.3)"/>
<path d="M 118.81 90.64 118.81 106.58" stroke="rgba(0,0,0,0.3)"/>
<path d="M 161.65 90.64 161.65 106.58" stroke="rgba(0,0,0,0.3)"/>
<path d="M 220.55 90.64 220.55 106.58" stroke="rgba(0,0,0,0.3)"/>
<path d="M 499 90.64 499 106.58" stroke="rgba(0,0,0,0.3)"/>
</g>
<g id="layer28" font-family="sans-serif" font-size="12" text-anchor="middle">
<text y="0" x="0" transform="translate(1 119.6236)" font-family="sans-serif" font-size="13" text-anchor="start" fill="#555">0</text>
<text y="0" x="0" transform="translate(33.129 119.6236)" font-family="sans-serif" font-size="13" text-anchor="middle" fill="#555">0.06</text>
<text y="0" x="0" transform="translate(59.9032 119.6236)" font-family="sans-serif" font-size="13" text-anchor="middle" fill="#555">0.11</text>
<text y="0" x="0" transform="translate(81.3226 119.6236)" font-family="sans-serif" font-size="13" text-anchor="middle" fill="#555">0.15</text>
<text y="0" x="0" transform="translate(118.8065 119.6236)" font-family="sans-serif" font-size="13" text-anchor="middle" fill="#555">0.22</text>
<text y="0" x="0" transform="translate(161.6452 119.6236)" font-family="sans-serif" font-size="13" text-anchor="middle" fill="#555">0.3</text>
<text y="0" x="0" transform="translate(220.5484 119.6236)" font-family="sans-serif" font-size="13" text-anchor="middle" fill="#555">0.41</text>
<text y="0" x="0" transform="translate(499 119.6236)" font-family="sans-serif" font-size="13" text-anchor="end" fill="#555">0.93</text>
</g>
</svg>