<?xml version="1.0"?>
<svg xmlns="http://www.w3.org/2000/svg" version="1.2" baseProfile="tiny" width="500" height="121" viewBox="0 0 500 121" stroke-linecap="butt" stroke-linejoin="round">
<style>
  path {shape-rendering: crispEdges;}
</style>
<g id="layer21">
<path d="M 1 90.64 1 1 5.98 1 5.98 90.64 1 90.64 Z" fill="#ddd"/>
<path d="M 5.98 90.64 5.98 80.27 10.96 80.27 10.96 90.64 5.98 90.64 Z" fill="#ddd"/>
<path d="M 10.96 90.64 10.96 57.3 15.94 57.3 15.94 90.64 10.96 90.64 Z" fill="#ddd"/>
<path d="M 15.94 90.64 15.94 44.71 20.92 44.71 20.92 90.64 15.94 90.64 Z" fill="#ddd"/>
<path d="M 20.92 90.64 20.92 38.78 25.9 38.78 25.9 90.64 20.92 90.64 Z" fill="#ddd"/>
<path d="M 25.9 90.64 25.9 33.6 30.88 33.6 30.88 90.64 25.9 90.64 Z" fill="#ddd"/>
<path d="M 30.88 90.64 30.88 35.82 35.86 35.82 35.86 90.64 30.88 90.64 Z" fill="#ddd"/>
<path d="M 35.86 90.64 35.86 30.63 40.84 30.63 40.84 90.64 35.86 90.64 Z" fill="#ddd"/>
<path d="M 40.84 90.64 40.84 17.3 45.82 17.3 45.82 90.64 40.84 90.64 Z" fill="#ddd"/>
<path d="M 45.82 90.64 45.82 12.85 50.8 12.85 50.8 90.64 45.82 90.64 Z" fill="#ddd"/>
<path d="M 55.78 90.64 55.78 9.15 60.76 9.15 60.76 90.64 55.78 90.64 Z" fill="#ddd"/>
<path d="M 60.76 90.64 60.76 7.67 65.74 7.67 65.74 90.64 60.76 90.64 Z" fill="#ddd"/>
<path d="M 65.74 90.64 65.74 3.96 70.72 3.96 70.72 90.64 65.74 90.64 Z" fill="#ddd"/>
<path d="M 70.72 90.64 70.72 3.96 75.7 3.96 75.7 90.64 70.72 90.64 Z" fill="#ddd"/>
<path d="M 75.7 90.64 75.7 13.59 80.68 13.59 80.68 90.64 75.7 90.64 Z" fill="#ddd"/>
<path d="M 80.68 90.64 80.68 21.74 85.66 21.74 85.66 90.64 80.68 90.64 Z" fill="#ddd"/>
<path d="M 85.66 90.64 85.66 35.82 90.64 35.82 90.64 90.64 85.66 90.64 Z" fill="#ddd"/>
<path d="M 90.64 90.64 90.64 26.93 95.62 26.93 95.62 90.64 90.64 90.64 Z" fill="#ddd"/>
<path d="M 95.62 90.64 95.62 29.89 100.6 29.89 100.6 90.64 95.62 90.64 Z" fill="#ddd"/>
<path d="M 105.58 90.64 105.58 40.26 110.56 40.26 110.56 90.64 105.58 90.64 Z" fill="#ddd"/>
<path d="M 110.56 90.64 110.56 42.49 115.54 42.49 115.54 90.64 110.56 90.64 Z" fill="#ddd"/>
<path d="M 115.54 90.64 115.54 56.56 120.52 56.56 120.52 90.64 115.54 90.64 Z" fill="#ddd"/>
<path d="M 120.52 90.64 120.52 40.26 125.5 40.26 125.5 90.64 120.52 90.64 Z" fill="#ddd"/>
<path d="M 125.5 90.64 125.5 42.49 130.48 42.49 130.48 90.64 125.5 90.64 Z" fill="#ddd"/>
<path d="M 130.48 90.64 130.48 46.19 135.46 46.19 135.46 90.64 130.48 90.64 Z" fill="#ddd"/>
<path d="M 135.46 90.64 135.46 55.08 140.44 55.08 140.44 90.64 135.46 90.64 Z" fill="#ddd"/>
<path d="M 140.44 90.64 140.44 54.34 145.42 54.34 145.42 90.64 140.44 90.64 Z" fill="#ddd"/>
<path d="M 150.4 90.64 150.4 51.38 155.38 51.38 155.38 90.64 150.4 90.64 Z" fill="#ddd"/>
<path d="M 155.38 90.64 155.38 55.08 160.36 55.08 160.36 90.64 155.38 90.64 Z" fill="#ddd"/>
<path d="M 160.36 90.64 160.36 58.04 165.34 58.04 165.34 90.64 160.36 90.64 Z" fill="#ddd"/>
<path d="M 165.34 90.64 165.34 49.15 170.32 49.15 170.32 90.64 165.34 90.64 Z" fill="#ddd"/>
<path d="M 170.32 90.64 170.32 57.3 175.3 57.3 175.3 90.64 170.32 90.64 Z" fill="#ddd"/>
<path d="M 175.3 90.64 175.3 55.82 180.28 55.82 180.28 90.64 175.3 90.64 Z" fill="#ddd"/>
<path d="M 180.28 90.64 180.28 56.56 185.26 56.56 185.26 90.64 180.28 90.64 Z" fill="#ddd"/>
<path d="M 185.26 90.64 185.26 56.56 190.24 56.56 190.24 90.64 185.26 90.64 Z" fill="#ddd"/>
<path d="M 190.24 90.64 190.24 61.01 195.22 61.01 195.22 90.64 190.24 90.64 Z" fill="#ddd"/>
<path d="M 195.22 90.64 195.22 59.53 200.2 59.53 200.2 90.64 195.22 90.64 Z" fill="#ddd"/>
<path d="M 205.18 90.64 205.18 64.71 210.16 64.71 210.16 90.64 205.18 90.64 Z" fill="#ddd"/>
<path d="M 210.16 90.64 210.16 65.45 215.14 65.45 215.14 90.64 210.16 90.64 Z" fill="#ddd"/>
<path d="M 215.14 90.64 215.14 67.67 220.12 67.67 220.12 90.64 215.14 90.64 Z" fill="#ddd"/>
<path d="M 220.12 90.64 220.12 68.42 225.1 68.42 225.1 90.64 220.12 90.64 Z" fill="#ddd"/>
<path d="M 225.1 90.64 225.1 61.01 230.08 61.01 230.08 90.64 225.1 90.64 Z" fill="#ddd"/>
<path d="M 230.08 90.64 230.08 64.71 235.06 64.71 235.06 90.64 230.08 90.64 Z" fill="#ddd"/>
<path d="M 235.06 90.64 235.06 66.19 240.04 66.19 240.04 90.64 235.06 90.64 Z" fill="#ddd"/>
<path d="M 240.04 90.64 240.04 66.19 245.02 66.19 245.02 90.64 240.04 90.64 Z" fill="#ddd"/>
<path d="M 245.02 90.64 245.02 78.79 250 78.79 250 90.64 245.02 90.64 Z" fill="#ddd"/>
<path d="M 254.98 90.64 254.98 68.42 259.96 68.42 259.96 90.64 254.98 90.64 Z" fill="#ddd"/>
<path d="M 259.96 90.64 259.96 69.16 264.94 69.16 264.94 90.64 259.96 90.64 Z" fill="#ddd"/>
<path d="M 264.94 90.64 264.94 71.38 269.92 71.38 269.92 90.64 264.94 90.64 Z" fill="#ddd"/>
<path d="M 269.92 90.64 269.92 78.79 274.9 78.79 274.9 90.64 269.92 90.64 Z" fill="#ddd"/>
<path d="M 274.9 90.64 274.9 69.16 279.88 69.16 279.88 90.64 274.9 90.64 Z" fill="#ddd"/>
<path d="M 279.88 90.64 279.88 72.86 284.86 72.86 284.86 90.64 279.88 90.64 Z" fill="#ddd"/>
<path d="M 284.86 90.64 284.86 80.27 289.84 80.27 289.84 90.64 284.86 90.64 Z" fill="#ddd"/>
<path d="M 289.84 90.64 289.84 78.79 294.82 78.79 294.82 90.64 289.84 90.64 Z" fill="#ddd"/>
<path d="M 299.8 90.64 299.8 75.08 304.78 75.08 304.78 90.64 299.8 90.64 Z" fill="#ddd"/>
<path d="M 304.78 90.64 304.78 78.05 309.76 78.05 309.76 90.64 304.78 90.64 Z" fill="#ddd"/>
<path d="M 309.76 90.64 309.76 83.23 314.74 83.23 314.74 90.64 309.76 90.64 Z" fill="#ddd"/>
<path d="M 314.74 90.64 314.74 81.01 319.72 81.01 319.72 90.64 314.74 90.64 Z" fill="#ddd"/>
<path d="M 319.72 90.64 319.72 83.23 324.7 83.23 324.7 90.64 319.72 90.64 Z" fill="#ddd"/>
<path d="M 324.7 90.64 324.7 83.23 329.68 83.23 329.68 90.64 324.7 90.64 Z" fill="#ddd"/>
<path d="M 329.68 90.64 329.68 88.42 334.66 88.42 334.66 90.64 329.68 90.64 Z" fill="#ddd"/>
<path d="M 334.66 90.64 334.66 85.45 339.64 85.45 339.64 90.64 334.66 90.64 Z" fill="#ddd"/>
<path d="M 339.64 90.64 339.64 84.71 344.62 84.71 344.62 90.64 339.64 90.64 Z" fill="#ddd"/>
<path d="M 344.62 90.64 344.62 86.2 349.6 86.2 349.6 90.64 344.62 90.64 Z" fill="#ddd"/>
<path d="M 354.58 90.64 354.58 86.2 359.56 86.2 359.56 90.64 354.58 90.64 Z" fill="#ddd"/>
<path d="M 359.56 90.64 359.56 85.45 364.54 85.45 364.54 90.64 359.56 90.64 Z" fill="#ddd"/>
<path d="M 364.54 90.64 364.54 88.42 369.52 88.42 369.52 90.64 364.54 90.64 Z" fill="#ddd"/>
<path d="M 369.52 90.64 369.52 87.68 374.5 87.68 374.5 90.64 369.52 90.64 Z" fill="#ddd"/>
<path d="M 374.5 90.64 374.5 87.68 379.48 87.68 379.48 90.64 374.5 90.64 Z" fill="#ddd"/>
<path d="M 379.48 90.64 379.48 89.16 384.46 89.16 384.46 90.64 379.48 90.64 Z" fill="#ddd"/>
<path d="M 384.46 90.64 384.46 86.94 389.44 86.94 389.44 90.64 384.46 90.64 Z" fill="#ddd"/>
<path d="M 389.44 90.64 389.44 89.16 394.42 89.16 394.42 90.64 389.44 90.64 Z" fill="#ddd"/>
<path d="M 404.38 90.64 404.38 88.42 409.36 88.42 409.36 90.64 404.38 90.64 Z" fill="#ddd"/>
<path d="M 409.36 90.64 409.36 89.16 414.34 89.16 414.34 90.64 409.36 90.64 Z" fill="#ddd"/>
<path d="M 414.34 90.64 414.34 89.16 419.32 89.16 419.32 90.64 414.34 90.64 Z" fill="#ddd"/>
<path d="M 419.32 90.64 419.32 89.16 424.3 89.16 424.3 90.64 419.32 90.64 Z" fill="#ddd"/>
<path d="M 424.3 90.64 424.3 89.16 429.28 89.16 429.28 90.64 424.3 90.64 Z" fill="#ddd"/>
<path d="M 429.28 90.64 429.28 89.9 434.26 89.9 434.26 90.64 429.28 90.64 Z" fill="#ddd"/>
<path d="M 434.26 90.64 434.26 89.9 439.24 89.9 439.24 90.64 434.26 90.64 Z" fill="#ddd"/>
<path d="M 454.18 90.64 454.18 89.9 459.16 89.9 459.16 90.64 454.18 90.64 Z" fill="#ddd"/>
<path d="M 459.16 90.64 459.16 89.9 464.14 89.9 464.14 90.64 459.16 90.64 Z" fill="#ddd"/>
<path d="M 494.02 90.64 494.02 89.9 499 89.9 499 90.64 494.02 90.64 Z" fill="#ddd"/>
</g>
<g id="layer22">
<path d="M 1 100.6 1 90.64 34.2 90.64 34.2 100.6 1 100.6 Z" fill="#eff3ff"/>
<path d="M 34.2 100.6 34.2 90.64 61.87 90.64 61.87 100.6 34.2 100.6 Z" fill="#c6dbef"/>
<path d="M 61.87 100.6 61.87 90.64 84 90.64 84 100.6 61.87 100.6 Z" fill="#9ecae1"/>
<path d="M 84 100.6 84 90.64 122.73 90.64 122.73 100.6 84 100.6 Z" fill="#6baed6"/>
<path d="M 122.73 100.6 122.73 90.64 167 90.64 167 100.6 122.73 100.6 Z" fill="#4292c6"/>
<path d="M 167 100.6 167 90.64 227.87 90.64 227.87 100.6 167 100.6 Z" fill="#2171b5"/>
<path d="M 227.87 100.6 227.87 90.64 499 90.64 499 100.6 227.87 100.6 Z" fill="#084594"/>
<g/>
</g>
<g id="layer23" fill="none" stroke="black" stroke-width="1">
<path d="M 1 90.64 1 106.58" stroke="rgba(0,0,0,0.3)"/>
<path d="M 34.2 90.64 34.2 106.58" stroke="rgba(0,0,0,0.3)"/>
<path d="M 61.87 90.64 61.87 106.58" stroke="rgba(0,0,0,0.3)"/>
<path d="M 84 90.64 84 106.58" stroke="rgba(0,0,0,0.3)"/>
<path d="M 122.73 90.64 122.73 106.58" stroke="rgba(0,0,0,0.3)"/>
<path d="M 167 90.64 167 106.58" stroke="rgba(0,0,0,0.3)"/>
<path d="M 227.87 90.64 227.87 106.58" stroke="rgba(0,0,0,0.3)"/>
<path d="M 499 90.64 499 106.58" stroke="rgba(0,0,0,0.3)"/>
</g>
<g id="layer24" font-family="sans-serif" font-size="12" text-anchor="middle">
<text y="0" x="0" transform="translate(1 119.6236)" font-family="sans-serif" font-size="13" text-anchor="start" fill="#555">0</text>
<text y="0" x="0" transform="translate(34.2 119.6236)" font-family="sans-serif" font-size="13" text-anchor="middle" fill="#555">0.06</text>
<text y="0" x="0" transform="translate(61.8667 119.6236)" font-family="sans-serif" font-size="13" text-anchor="middle" fill="#555">0.11</text>
<text y="0" x="0" transform="translate(84 119.6236)" font-family="sans-serif" font-size="13" text-anchor="middle" fill="#555">0.15</text>
<text y="0" x="0" transform="translate(122.7333 119.6236)" font-family="sans-serif" font-size="13" text-anchor="middle" fill="#555">0.22</text>
<text y="0" x="0" transform="translate(167 119.6236)" font-family="sans-serif" font-size="13" text-anchor="middle" fill="#555">0.3</text>
<text y="0" x="0" transform="translate(227.8667 119.6236)" font-family="sans-serif" font-size="13" text-anchor="middle" fill="#555">0.41</text>
<text y="0" x="0" transform="translate(499 119.6236)" font-family="sans-serif" font-size="13" text-anchor="end" fill="#555">0.9</text>
</g>
</svg>