<?xml version="1.0"?>
<svg xmlns="http://www.w3.org/2000/svg" version="1.2" baseProfile="tiny" width="500" height="121" viewBox="0 0 500 121" stroke-linecap="butt" stroke-linejoin="round">
<style>
  path {shape-rendering: crispEdges;}
</style>
<g id="layer29">
<path d="M 1 90.64 1 42.86 5.98 42.86 5.98 90.64 1 90.64 Z" fill="#ddd"/>
<path d="M 5.98 90.64 5.98 59.25 10.96 59.25 10.96 90.64 5.98 90.64 Z" fill="#ddd"/>
<path d="M 10.96 90.64 10.96 46.34 15.94 46.34 15.94 90.64 10.96 90.64 Z" fill="#ddd"/>
<path d="M 15.94 90.64 15.94 26.46 20.92 26.46 20.92 90.64 15.94 90.64 Z" fill="#ddd"/>
<path d="M 25.9 90.64 25.9 25.76 30.88 25.76 30.88 90.64 25.9 90.64 Z" fill="#ddd"/>
<path d="M 30.88 90.64 30.88 10.77 35.86 10.77 35.86 90.64 30.88 90.64 Z" fill="#ddd"/>
<path d="M 35.86 90.64 35.86 1 40.84 1 40.84 90.64 35.86 90.64 Z" fill="#ddd"/>
<path d="M 45.82 90.64 45.82 6.58 50.8 6.58 50.8 90.64 45.82 90.64 Z" fill="#ddd"/>
<path d="M 50.8 90.64 50.8 19.83 55.78 19.83 55.78 90.64 50.8 90.64 Z" fill="#ddd"/>
<path d="M 55.78 90.64 55.78 28.55 60.76 28.55 60.76 90.64 55.78 90.64 Z" fill="#ddd"/>
<path d="M 60.76 90.64 60.76 31.69 65.74 31.69 65.74 90.64 60.76 90.64 Z" fill="#ddd"/>
<path d="M 70.72 90.64 70.72 48.44 75.7 48.44 75.7 90.64 70.72 90.64 Z" fill="#ddd"/>
<path d="M 75.7 90.64 75.7 48.44 80.68 48.44 80.68 90.64 75.7 90.64 Z" fill="#ddd"/>
<path d="M 80.68 90.64 80.68 55.06 85.66 55.06 85.66 90.64 80.68 90.64 Z" fill="#ddd"/>
<path d="M 90.64 90.64 90.64 58.55 95.62 58.55 95.62 90.64 90.64 90.64 Z" fill="#ddd"/>
<path d="M 95.62 90.64 95.62 68.32 100.6 68.32 100.6 90.64 95.62 90.64 Z" fill="#ddd"/>
<path d="M 100.6 90.64 100.6 66.92 105.58 66.92 105.58 90.64 100.6 90.64 Z" fill="#ddd"/>
<path d="M 110.56 90.64 110.56 66.22 115.54 66.22 115.54 90.64 110.56 90.64 Z" fill="#ddd"/>
<path d="M 115.54 90.64 115.54 69.71 120.52 69.71 120.52 90.64 115.54 90.64 Z" fill="#ddd"/>
<path d="M 120.52 90.64 120.52 79.48 125.5 79.48 125.5 90.64 120.52 90.64 Z" fill="#ddd"/>
<path d="M 125.5 90.64 125.5 76.34 130.48 76.34 130.48 90.64 125.5 90.64 Z" fill="#ddd"/>
<path d="M 135.46 90.64 135.46 74.94 140.44 74.94 140.44 90.64 135.46 90.64 Z" fill="#ddd"/>
<path d="M 140.44 90.64 140.44 76.34 145.42 76.34 145.42 90.64 140.44 90.64 Z" fill="#ddd"/>
<path d="M 145.42 90.64 145.42 75.64 150.4 75.64 150.4 90.64 145.42 90.64 Z" fill="#ddd"/>
<path d="M 155.38 90.64 155.38 80.53 160.36 80.53 160.36 90.64 155.38 90.64 Z" fill="#ddd"/>
<path d="M 160.36 90.64 160.36 84.01 165.34 84.01 165.34 90.64 160.36 90.64 Z" fill="#ddd"/>
<path d="M 165.34 90.64 165.34 82.97 170.32 82.97 170.32 90.64 165.34 90.64 Z" fill="#ddd"/>
<path d="M 175.3 90.64 175.3 81.92 180.28 81.92 180.28 90.64 175.3 90.64 Z" fill="#ddd"/>
<path d="M 180.28 90.64 180.28 86.8 185.26 86.8 185.26 90.64 180.28 90.64 Z" fill="#ddd"/>
<path d="M 185.26 90.64 185.26 86.45 190.24 86.45 190.24 90.64 185.26 90.64 Z" fill="#ddd"/>
<path d="M 190.24 90.64 190.24 87.15 195.22 87.15 195.22 90.64 190.24 90.64 Z" fill="#ddd"/>
<path d="M 200.2 90.64 200.2 84.36 205.18 84.36 205.18 90.64 200.2 90.64 Z" fill="#ddd"/>
<path d="M 205.18 90.64 205.18 85.06 210.16 85.06 210.16 90.64 205.18 90.64 Z" fill="#ddd"/>
<path d="M 210.16 90.64 210.16 87.85 215.14 87.85 215.14 90.64 210.16 90.64 Z" fill="#ddd"/>
<path d="M 220.12 90.64 220.12 86.8 225.1 86.8 225.1 90.64 220.12 90.64 Z" fill="#ddd"/>
<path d="M 225.1 90.64 225.1 89.24 230.08 89.24 230.08 90.64 225.1 90.64 Z" fill="#ddd"/>
<path d="M 230.08 90.64 230.08 87.85 235.06 87.85 235.06 90.64 230.08 90.64 Z" fill="#ddd"/>
<path d="M 240.04 90.64 240.04 87.5 245.02 87.5 245.02 90.64 240.04 90.64 Z" fill="#ddd"/>
<path d="M 245.02 90.64 245.02 87.5 250 87.5 250 90.64 245.02 90.64 Z" fill="#ddd"/>
<path d="M 250 90.64 250 87.5 254.98 87.5 254.98 90.64 250 90.64 Z" fill="#ddd"/>
<path d="M 254.98 90.64 254.98 87.15 259.96 87.15 259.96 90.64 254.98 90.64 Z" fill="#ddd"/>
<path d="M 264.94 90.64 264.94 86.8 269.92 86.8 269.92 90.64 264.94 90.64 Z" fill="#ddd"/>
<path d="M 269.92 90.64 269.92 88.9 274.9 88.9 274.9 90.64 269.92 90.64 Z" fill="#ddd"/>
<path d="M 274.9 90.64 274.9 90.29 279.88 90.29 279.88 90.64 274.9 90.64 Z" fill="#ddd"/>
<path d="M 284.86 90.64 284.86 87.85 289.84 87.85 289.84 90.64 284.86 90.64 Z" fill="#ddd"/>
<path d="M 289.84 90.64 289.84 89.94 294.82 89.94 294.82 90.64 289.84 90.64 Z" fill="#ddd"/>
<path d="M 294.82 90.64 294.82 89.24 299.8 89.24 299.8 90.64 294.82 90.64 Z" fill="#ddd"/>
<path d="M 304.78 90.64 304.78 88.55 309.76 88.55 309.76 90.64 304.78 90.64 Z" fill="#ddd"/>
<path d="M 309.76 90.64 309.76 89.59 314.74 89.59 314.74 90.64 309.76 90.64 Z" fill="#ddd"/>
<path d="M 314.74 90.64 314.74 89.24 319.72 89.24 319.72 90.64 314.74 90.64 Z" fill="#ddd"/>
<path d="M 319.72 90.64 319.72 90.29 324.7 90.29 324.7 90.64 319.72 90.64 Z" fill="#ddd"/>
<path d="M 329.68 90.64 329.68 89.94 334.66 89.94 334.66 90.64 329.68 90.64 Z" fill="#ddd"/>
<path d="M 334.66 90.64 334.66 89.94 339.64 89.94 339.64 90.64 334.66 90.64 Z" fill="#ddd"/>
<path d="M 339.64 90.64 339.64 88.9 344.62 88.9 344.62 90.64 339.64 90.64 Z" fill="#ddd"/>
<path d="M 349.6 90.64 349.6 90.29 354.58 90.29 354.58 90.64 349.6 90.64 Z" fill="#ddd"/>
<path d="M 359.56 90.64 359.56 90.29 364.54 90.29 364.54 90.64 359.56 90.64 Z" fill="#ddd"/>
<path d="M 369.52 90.64 369.52 90.29 374.5 90.29 374.5 90.64 369.52 90.64 Z" fill="#ddd"/>
<path d="M 379.48 90.64 379.48 89.59 384.46 89.59 384.46 90.64 379.48 90.64 Z" fill="#ddd"/>
<path d="M 384.46 90.64 384.46 89.59 389.44 89.59 389.44 90.64 384.46 90.64 Z" fill="#ddd"/>
<path d="M 394.42 90.64 394.42 89.94 399.4 89.94 399.4 90.64 394.42 90.64 Z" fill="#ddd"/>
<path d="M 404.38 90.64 404.38 89.59 409.36 89.59 409.36 90.64 404.38 90.64 Z" fill="#ddd"/>
<path d="M 434.26 90.64 434.26 90.29 439.24 90.29 439.24 90.64 434.26 90.64 Z" fill="#ddd"/>
<path d="M 439.24 90.64 439.24 89.94 444.22 89.94 444.22 90.64 439.24 90.64 Z" fill="#ddd"/>
<path d="M 449.2 90.64 449.2 90.29 454.18 90.29 454.18 90.64 449.2 90.64 Z" fill="#ddd"/>
<path d="M 494.02 90.64 494.02 90.29 499 90.29 499 90.64 494.02 90.64 Z" fill="#ddd"/>
</g>
<g id="layer30">
<path d="M 1 100.6 1 90.64 39.81 90.64 39.81 100.6 1 100.6 Z" fill="#feedde"/>
<path d="M 39.81 100.6 39.81 90.64 72.14 90.64 72.14 100.6 39.81 100.6 Z" fill="#fdd0a2"/>
<path d="M 72.14 100.6 72.14 90.64 98.01 90.64 98.01 100.6 72.14 100.6 Z" fill="#fdae6b"/>
<path d="M 98.01 100.6 98.01 90.64 143.29 90.64 143.29 100.6 98.01 100.6 Z" fill="#fd8d3c"/>
<path d="M 143.29 100.6 143.29 90.64 195.03 90.64 195.03 100.6 143.29 100.6 Z" fill="#f16913"/>
<path d="M 195.03 100.6 195.03 90.64 266.17 90.64 266.17 100.6 195.03 100.6 Z" fill="#d94801"/>
<path d="M 266.17 100.6 266.17 90.64 499 90.64 499 100.6 266.17 100.6 Z" fill="#8c2d04"/>
<g/>
</g>
<g id="layer31" fill="none" stroke="black" stroke-width="1">
<path d="M 1 90.64 1 106.58" stroke="rgba(0,0,0,0.3)"/>
<path d="M 39.81 90.64 39.81 106.58" stroke="rgba(0,0,0,0.3)"/>
<path d="M 72.14 90.64 72.14 106.58" stroke="rgba(0,0,0,0.3)"/>
<path d="M 98.01 90.64 98.01 106.58" stroke="rgba(0,0,0,0.3)"/>
<path d="M 143.29 90.64 143.29 106.58" stroke="rgba(0,0,0,0.3)"/>
<path d="M 195.03 90.64 195.03 106.58" stroke="rgba(0,0,0,0.3)"/>
<path d="M 266.17 90.64 266.17 106.58" stroke="rgba(0,0,0,0.3)"/>
<path d="M 499 90.64 499 106.58" stroke="rgba(0,0,0,0.3)"/>
</g>
<g id="layer32" font-family="sans-serif" font-size="12" text-anchor="middle">
<text y="0" x="0" transform="translate(1 119.6236)" font-family="sans-serif" font-size="13" text-anchor="start" fill="#555">0</text>
<text y="0" x="0" transform="translate(39.8052 119.6236)" font-family="sans-serif" font-size="13" text-anchor="middle" fill="#555">0.06</text>
<text y="0" x="0" transform="translate(72.1429 119.6236)" font-family="sans-serif" font-size="13" text-anchor="middle" fill="#555">0.11</text>
<text y="0" x="0" transform="translate(98.013 119.6236)" font-family="sans-serif" font-size="13" text-anchor="middle" fill="#555">0.15</text>
<text y="0" x="0" transform="translate(143.2857 119.6236)" font-family="sans-serif" font-size="13" text-anchor="middle" fill="#555">0.22</text>
<text y="0" x="0" transform="translate(195.026 119.6236)" font-family="sans-serif" font-size="13" text-anchor="middle" fill="#555">0.3</text>
<text y="0" x="0" transform="translate(266.1688 119.6236)" font-family="sans-serif" font-size="13" text-anchor="middle" fill="#555">0.41</text>
<text y="0" x="0" transform="translate(499 119.6236)" font-family="sans-serif" font-size="13" text-anchor="end" fill="#555">0.77</text>
</g>
</svg>