<?xml version="1.0"?>
<svg xmlns="http://www.w3.org/2000/svg" version="1.2" baseProfile="tiny" width="300" height="31" viewBox="0 0 300 31" stroke-linecap="butt" stroke-linejoin="round">
<style>
  path {shape-rendering: crispEdges;}
</style>
<g id="layer53">
<path d="M 1 10.93 1 1 75.5 1 75.5 10.93 1 10.93 Z" fill="rgb(0, 32, 81)"/>
<path d="M 75.5 10.93 75.5 1 150 1 150 10.93 75.5 10.93 Z" fill="rgb(87, 92, 110)"/>
<path d="M 150 10.93 150 1 224.5 1 224.5 10.93 150 10.93 Z" fill="rgb(164, 157, 120)"/>
<path d="M 224.5 10.93 224.5 1 299 1 299 10.93 224.5 10.93 Z" fill="rgb(253, 234, 69)"/>
</g>
<g id="layer54" fill="none" stroke="black" stroke-width="1">
<path d="M 75.5 1 75.5 16.89" stroke="rgba(0,0,0,0.3)"/>
<path d="M 150 1 150 16.89" stroke="rgba(0,0,0,0.3)"/>
<path d="M 224.5 1 224.5 16.89" stroke="rgba(0,0,0,0.3)"/>
</g>
<g id="layer55" font-family="sans-serif" font-size="12" text-anchor="middle">
<text y="0" x="0" transform="translate(75.5 29.906)" font-family="sans-serif" font-size="13" text-anchor="middle" fill="#555">20</text>
<text y="0" x="0" transform="translate(150 29.906)" font-family="sans-serif" font-size="13" text-anchor="middle" fill="#555">40</text>
<text y="0" x="0" transform="translate(224.5 29.906)" font-family="sans-serif" font-size="13" text-anchor="middle" fill="#555">59</text>
</g>
</svg>