<?xml version="1.0" encoding="UTF-8" standalone="no"?>
<svg
   xmlns:dc="http://purl.org/dc/elements/1.1/"
   xmlns:cc="http://creativecommons.org/ns#"
   xmlns:rdf="http://www.w3.org/1999/02/22-rdf-syntax-ns#"
   xmlns:svg="http://www.w3.org/2000/svg"
   xmlns="http://www.w3.org/2000/svg"
   xmlns:sodipodi="http://sodipodi.sourceforge.net/DTD/sodipodi-0.dtd"
   xmlns:inkscape="http://www.inkscape.org/namespaces/inkscape"
   version="1.1"
   id="Layer_1"
   x="0px"
   y="0px"
   width="795.30847"
   height="604.05884"
   viewBox="0 -15 795.30848 604.05883"
   enable-background="new 0 -15 800 570"
   xml:space="preserve"
   sodipodi:docname="stateleader2.svg"
   inkscape:version="1.0.2 (e86c8708, 2021-01-15)"><metadata
   id="metadata21014"><rdf:RDF><cc:Work
       rdf:about=""><dc:format>image/svg+xml</dc:format><dc:type
         rdf:resource="http://purl.org/dc/dcmitype/StillImage" /><dc:title /></cc:Work></rdf:RDF></metadata><defs
   id="defs21012" /><sodipodi:namedview
   pagecolor="#ffffff"
   bordercolor="#666666"
   borderopacity="1"
   objecttolerance="10"
   gridtolerance="10"
   guidetolerance="10"
   inkscape:pageopacity="0"
   inkscape:pageshadow="2"
   inkscape:window-width="1383"
   inkscape:window-height="802"
   id="namedview21010"
   showgrid="false"
   fit-margin-top="0"
   fit-margin-left="0"
   fit-margin-right="0"
   fit-margin-bottom="0"
   inkscape:zoom="0.91577207"
   inkscape:cx="426.36028"
   inkscape:cy="310.72824"
   inkscape:window-x="0"
   inkscape:window-y="23"
   inkscape:window-maximized="0"
   inkscape:current-layer="Layer_1"
   inkscape:document-rotation="0" />
<g
   id="state"
   transform="translate(-4.9059407,-14.719517)">
	<path
   fill="#6a51a3"
   stroke="#000000"
   stroke-width="2"
   stroke-miterlimit="10"
   d="m 650.93,205.23 35.66,-6.72 17.17,-3.64 6.51,23.46 9.4,-1.89 -1.04,8.6 -5.92,2.81 -3.45,0.27 -0.93,-5.06 -14.34,2.47 -5.271,-6.13 0.73,-3.23 -1.72,-2.45 -5.49,-1.7 -4.62,-3.9 -2.561,-4.72 -3.93,-0.89 -13.82,6.45 -4.819,6.07 z"
   id="path20884"
   style="fill:#984ea3;fill-opacity:1" />
	<path
   fill="#d94701"
   stroke="#000000"
   stroke-width="2"
   stroke-miterlimit="10"
   d="m 404.61,153.46 22.12,-0.08 27.449,-0.6 22.851,-0.97 2.45,4.61 -0.771,6.77 7.33,7.21 7.229,7.32 0.07,5.66 -2.01,4.23 -9.59,3.91 -1.061,3.4 2.61,5.57 -2.14,5.53 -3.091,1.3 -0.93,4.58 -4.68,-4.32 -13.78,1.01 -26.63,1.04 -17.771,-0.12 -2.279,-16.75 -2.021,-6.49 -3.989,-7.19 -1.351,-6.23 -2.439,-5.56 2.579,-6.41 z"
   id="path20886"
   style="fill:#e41a1c;fill-opacity:1" />
	<path
   fill="#6a51a3"
   stroke="#000000"
   stroke-width="2"
   stroke-miterlimit="10"
   d="m 708.76,192.21 -0.359,6.07 5.64,10.29 3.58,1.5 2.05,6.37 -9.4,1.89 -6.51,-23.46 z"
   id="path20888"
   style="fill:#984ea3;fill-opacity:1" />
	<path
   fill="#6a51a3"
   stroke="#000000"
   stroke-width="2"
   stroke-miterlimit="10"
   d="m 569.48,178.79 18.96,-3.09 9.1,1.57 5.81,3.09 6.221,-3.4 3.67,-0.04 5.56,-6.14 10.07,-5.85 4.189,25.42 -1.59,18.34 -3.52,5.68 -7.45,4.57 -2.22,7.04 -4.19,3.09 -0.7,6.99 -3.89,1.09 -5.24,-5.77 -5.42,3.79 -3.89,-1.48 -10.22,-0.7 -4.4,-5.59 -5.19,0.94 z"
   id="path20890"
   style="fill:#984ea3;fill-opacity:1" />
	<path
   fill="#6a51a3"
   stroke="#000000"
   stroke-width="2"
   stroke-miterlimit="10"
   d="m 628.87,164.93 9.61,-7.32 0.899,5.14 29.91,-5.52 31.43,-6.43 4.98,3.63 2.069,4.58 4.591,1.71 -4.521,8.46 0.96,7.88 8.33,6.33 -8.37,8.82 -5,2.66 -17.17,3.64 -35.66,6.72 -15.01,2.55 -2.86,-17.43 z"
   id="path20892"
   style="fill:#984ea3;fill-opacity:1" />
	<path
   fill="#6a51a3"
   stroke="#000000"
   stroke-width="2"
   stroke-miterlimit="10"
   d="m 298.78,158.32 27.39,2.06 26.22,1.45 23.68,0.82 7.55,4.57 1.32,-1.8 8.66,0.37 7.51,3.8 3.52,3.26 1.351,6.23 3.989,7.19 2.021,6.49 2.279,16.75 1.631,5.05 5.05,6.18 -24.74,-0.07 -40.77,-1.03 -32.51,-1.72 1.23,-19.2 -28.63,-2.11 z"
   id="path20894"
   style="fill:#984ea3;fill-opacity:1" />
	<path
   fill="#2171b5"
   stroke="#000000"
   stroke-width="2"
   stroke-miterlimit="10"
   d="m 67.1,5.07 5.96,2.16 -2.9,3.96 z m 78.15,14.12 -10.62,46.76 -0.39,9.22 -26.86,-6.41 -2.1,0.8 -19.85,-1.42 -6.88,0.11 -9.09,-3.66 -6.66,1.35 -5.88,-4.39 0.98,-5.29 -2.66,-5.23 -5.11,-2.98 -6.73,-2.19 2.59,-8.53 1.18,-18.64 -1.69,-5.95 2.63,-7.64 6.23,6.14 12.48,5.44 3.29,-0.08 3.8,-7.68 0.75,-7.92 33.84,9.32 z"
   id="path20896"
   style="fill:#377eb8;fill-opacity:1" />
	<path
   fill="#2171b5"
   stroke="#000000"
   stroke-width="2"
   stroke-miterlimit="10"
   d="m 532.1,312.17 40.21,-3.65 11.141,39.78 5.979,10.851 -2.39,2.729 -0.68,5.8 2.26,5.42 -0.28,6.931 2.11,3.33 -14.48,1.75 -27.779,2.64 3.829,6.18 -1.289,7.34 -4.65,-0.43 -4.88,-5.729 -0.7,6.27 -4.33,-0.58 -3.58,-29.7 1.26,-57.08 z"
   id="path20898"
   style="fill:#377eb8;fill-opacity:1" />
	<path
   fill="#2171b5"
   stroke="#000000"
   stroke-width="2"
   stroke-miterlimit="10"
   d="m 431.97,288.05 22.75,-0.479 45.29,-2.03 1.601,3.61 -4.301,6.189 9.73,-0.699 0.39,3.659 -3.439,2.421 -4.62,13.77 -3.9,7.55 0.4,3.84 -4.79,3.93 -4.37,13.601 2.62,5.56 -1.32,4.46 -45.899,1.351 -0.21,-10.21 -7.04,-1.53 0.31,-33.29 z"
   id="path20900"
   style="fill:#377eb8;fill-opacity:1" />
	<path
   fill="#6a51a3"
   stroke="#000000"
   stroke-width="2"
   stroke-miterlimit="10"
   d="m 213.84,265.04 38.61,4.91 26.3,2.67 26.13,2.04 -0.71,9.59 -0.6,-0.04 -3.47,46.44 -3.29,39.739 -33.65,-2.88 -23.55,-2.46 0.99,4.3 -27.03,-3.26 -1.11,8.55 -13.59,-1.81 z"
   id="path20902"
   style="fill:#984ea3;fill-opacity:1" />
	<path
   fill="#2171b5"
   stroke="#000000"
   stroke-width="2"
   stroke-miterlimit="10"
   d="m 304.17,284.25 45.71,2.67 -1.57,37.271 4.62,3.64 6.6,0.14 1.24,3.351 7.06,1.819 10.02,0.771 3.58,4.97 3.11,-2.67 7.3,3.6 4.771,-2.579 8.529,4.909 3.351,-2.63 14.59,-2.55 6.12,4.21 5.66,1.87 7.04,1.53 0.21,10.21 0.43,19.68 3.52,7.7 5.07,7.54 0.19,4.99 -3.07,7.329 0.64,9.351 -3.62,4.88 1.561,2.11 -3.62,0.449 -8.9,4.03 -13.05,11.59 -13.649,6.95 -11.76,8.89 -7.1,11.36 -1.51,6.94 3.75,20.63 -4.85,2.399 -6.41,-4.159 -6.97,-0.171 -15.62,-7.43 -5.01,-14.04 -1.85,-8.7 -4.78,-3.31 -1.33,-3.64 -5.45,-5.601 -6.08,-16.46 -11.45,-12.78 -14.77,-3.579 -6.41,2.229 -3.9,9.21 -7.21,4.41 -13.76,-8.78 -6.08,-6.13 -1.77,-10.42 -4.08,-9.22 -4.86,-3.24 -12.74,-13.6 -5.01,-6.841 -0.99,-4.3 23.55,2.46 33.65,2.88 3.29,-39.739 3.47,-46.44 z"
   id="path20904"
   style="fill:#377eb8;fill-opacity:1" />
	<path
   fill="#6a51a3"
   stroke="#000000"
   stroke-width="2"
   stroke-miterlimit="10"
   d="m 17.82,123.55 43.13,12.51 14.17,3.72 -14.43,55.81 62.17,93.11 -0.5,2.43 5.34,13.06 -7.34,5.041 -1.24,7.119 -3.5,2.74 -0.7,6.49 2.45,4.25 -4.41,1.6 -38.46,-4.57 -0.41,-9.49 -1.46,-5.38 -8.5,-11.53 -4.13,-0.649 -0.58,-5.9 -8.72,-3.46 -6.2,-8.021 -12.54,-3.76 -2.28,-3.26 2.83,-10.051 -3.3,-3.35 -7.01,-20.22 -2.36,-3.39 0.24,-5.53 3.83,-3.58 -6.89,-9.38 0.03,-6.69 5.89,-1.26 -9.25,-9.95 0.51,-5.17 -6.68,-14.35 0.87,-8.75 2.25,-8.8 -4.71,-10.07 0.37,-3.45 7.12,-8.92 3.28,-8.06 z"
   id="path20906"
   style="fill:#984ea3;fill-opacity:1" />
	<path
   fill="#2171b5"
   stroke="#000000"
   stroke-width="2"
   stroke-miterlimit="10"
   d="m 514.87,275.15 2.689,-4.93 7.11,2.529 -0.35,-6.391 5.92,-2.17 0.01,-6.029 8.85,-3.58 3.73,1.65 6.74,-1.631 5.47,-5.479 6.16,1.659 1.06,-5.039 8.42,-8.78 5.46,-4.41 -1,-4.21 5.19,-0.94 4.4,5.59 10.22,0.7 3.89,1.48 5.42,-3.79 5.24,5.77 0.3,5.54 6.11,7.85 5.29,2.11 -5.01,6.05 -5.131,3.71 -5.189,7.89 -7.771,3.8 -33.3,3.51 -9.66,0.44 -20.359,2.271 -2.78,2.81 -22.64,1.761 5.46,-3.561 z"
   id="path20908"
   style="fill:#377eb8;fill-opacity:1" />
	<path
   fill="#2171b5"
   stroke="#000000"
   stroke-width="2"
   stroke-miterlimit="10"
   d="m 572.31,308.52 19.83,-2.39 18.69,-2.659 -2.74,6.549 7.75,3.021 6.351,9.32 11.199,7.729 3.58,5.5 4.391,1.98 2.85,7.51 3.63,2.16 2.34,6.45 3.87,0.909 -2.979,6.521 -2.072,19.93 -8.43,-1 -3.74,5.63 -43.49,2.9 -2.89,-5.22 -2.11,-3.33 0.28,-6.931 -2.26,-5.42 0.68,-5.8 2.39,-2.729 -5.98,-10.85 z"
   id="path20910"
   style="fill:#377eb8;fill-opacity:1" />
	<path
   fill="#6a51a3"
   stroke="#000000"
   stroke-width="2"
   stroke-miterlimit="10"
   d="m 463.43,91.08 11.04,-3.15 10.16,4.76 4.2,4.12 13.89,2.86 3.88,1.94 9.41,1.16 4.86,4.34 -0.58,6.2 4.1,4.59 -4.689,7.61 2.96,1.3 6.14,-9.04 -4.34,23.6 0.73,3.68 -1.9,7.32 2.56,9.86 0.011,5.64 -39.82,2.53 -7.33,-7.21 0.771,-6.77 -2.45,-4.61 -0.63,-5.2 -2.91,-4.25 -6.4,-4.11 -1.07,-2.46 -8.149,-3.81 -3.61,-3.53 0.26,-9.89 1.44,-2.98 -3.17,-5.19 1.88,-3.28 5.561,-3.84 -0.41,-11.22 z"
   id="path20912"
   style="fill:#984ea3;fill-opacity:1" />
	<path
   fill="#2171b5"
   stroke="#000000"
   stroke-width="2"
   stroke-miterlimit="10"
   d="m 50.13,48.05 5.11,2.98 2.66,5.23 -0.98,5.29 5.88,4.39 6.66,-1.35 9.09,3.66 6.88,-0.11 19.85,1.42 2.1,-0.8 26.86,6.41 4.35,8.38 -7.7,11.74 -7.7,8.83 3.64,5.46 -3.1,5.8 -7.72,34.16 -40.89,-9.76 -14.17,-3.72 -43.13,-12.51 -1.27,-5.46 2.28,-7.49 -0.83,-3.93 8.28,-11.84 3.09,-6.15 9.15,-21.92 5.73,-18.14 z"
   id="path20914"
   style="fill:#377eb8;fill-opacity:1" />
	<path
   fill="#2171b5"
   stroke="#000000"
   stroke-width="2"
   stroke-miterlimit="10"
   d="m 414.27,209.51 17.771,0.12 26.63,-1.04 13.78,-1.01 4.68,4.32 -1.149,4.06 2.51,8.39 9.8,8.62 1.43,6.39 8.101,0.89 -3.223,10.35 2.551,4.26 10.899,6.98 0.891,7.12 2.43,5.28 3.5,0.91 -0.05,6.18 -5.46,3.561 0.46,2.92 -2.78,6.83 -9.73,0.699 4.301,-6.189 -1.601,-3.61 -45.29,2.03 -22.75,0.479 -0.14,-9.61 -0.44,-40.729 -2.85,-1.75 -4.68,-6.65 3.659,-3.81 -6.569,-4.76 -5.05,-6.18 z"
   id="path20916"
   style="fill:#377eb8;fill-opacity:1" />
	<path
   fill="#2171b5"
   stroke="#000000"
   stroke-width="2"
   stroke-miterlimit="10"
   d="m 712.71,227.85 5.92,-2.81 -3.37,6.25 -1.64,11.28 -3.43,-1.14 0.109,-5.44 z m -91.51,24.8 2.49,4.55 4.54,0.84 9.27,-3.39 8.62,-5.9 -0.47,-2.8 5.54,-12.46 0.979,-6.39 5.72,2.42 2.92,-8.81 3.101,-1.62 4.28,-5.97 -0.131,-6.01 8.69,4.89 0.87,-3.88 4.62,3.9 5.49,1.7 1.72,2.45 -0.73,3.23 -2.16,3.73 6.21,3.72 5.351,0.2 6.54,3.73 -0.49,4.4 2.14,4.45 -1.34,4.16 2.9,4.52 4.2,-0.06 3.42,6.58 -39.471,8.109 -26.81,4.67 -20.93,2.48 -30.179,4.011 7.771,-3.8 5.189,-7.89 5.131,-3.71 z"
   id="path20918"
   style="fill:#377eb8;fill-opacity:1" />
	<path
   fill="#2171b5"
   stroke="#000000"
   stroke-width="2"
   stroke-miterlimit="10"
   d="m 507.04,294.641 2.78,-6.83 -0.46,-2.92 22.64,-1.761 2.78,-2.81 20.359,-2.271 9.66,-0.44 33.3,-3.51 30.181,-4.01 -3.99,9.62 -2.86,-0.25 -8.18,4.41 -2.47,4.42 -7.38,5.26 -4.19,0.56 -7.04,7.4 -0.03,4.62 -19.83,2.39 -40.21,3.65 -32.729,2.32 4.62,-13.77 3.439,-2.421 z"
   id="path20920"
   style="fill:#377eb8;fill-opacity:1" />
	<path
   fill="#6a51a3"
   stroke="#000000"
   stroke-width="2"
   stroke-miterlimit="10"
   d="m 442.11,354.78 45.899,-1.351 2.991,17.181 -4.95,6.04 -3.79,15.489 31.181,-1.8 -1.421,5.36 5.82,10.069 -5.09,3.45 2.55,2.59 4.01,-3.85 4.271,-0.36 -4.03,12.86 4.771,0.84 1.29,5.92 -11.96,-4.7 -6.08,4.841 -10.74,1.17 -7.061,-3.29 -2.149,-4.65 -11.23,-1.18 -4.27,1.2 -14.351,-4.061 -10.939,1.811 -1.561,-2.11 3.62,-4.88 -0.64,-9.351 3.07,-7.329 -0.19,-4.99 -5.07,-7.54 -3.52,-7.7 z"
   id="path20922"
   style="fill:#984ea3;fill-opacity:1" />
	<path
   fill="#6a51a3"
   stroke="#000000"
   stroke-width="2"
   stroke-miterlimit="10"
   d="m 638.48,157.61 7.649,-7.09 3.18,-5.01 -4.04,-4.85 -0.569,-3.5 6.76,-3.33 10.83,-1.5 3.24,1.43 8.02,-2.29 6.28,-6.2 1.43,-5.85 -2.939,-1.76 0.59,-5.57 3.93,-3.68 7.159,-11.52 4.91,-4.18 19.66,-4.54 1.149,7.42 2.09,3.02 -0.109,7.87 4.91,8.83 3.279,14.79 0.12,13.74 2.521,14.31 -0.09,6.16 7.689,-1.6 11.05,-4.67 5.11,-0.08 -15.97,11.46 -11.75,3.48 -2.44,2.45 2.95,-10.48 -12.72,-4.15 -4.591,-1.71 -2.069,-4.58 -4.98,-3.63 -31.43,6.43 -29.91,5.52 z"
   id="path20924"
   style="fill:#984ea3;fill-opacity:1" />
	<path
   fill="#6a51a3"
   stroke="#000000"
   stroke-width="2"
   stroke-miterlimit="10"
   d="m 588.44,175.7 -18.96,3.09 -0.141,-1.23 -28.479,3.06 5.649,-10.1 1.07,-9.93 -1.271,-6.06 -5.04,-10.32 -0.43,-7.92 2.8,-5.81 -0.42,-6.77 2.141,-4.3 8.85,-3.56 -0.36,-4.28 2.721,-6.05 4.87,-4.58 7.319,2.11 11.66,5.19 2.22,4.47 0.811,13.29 -2.66,5.69 -3.64,2.33 -0.521,4.43 3.97,2.28 2.95,-6.75 6.12,-3.73 4.65,3.96 3.149,11.29 2.08,3.97 -0.3,7.18 -4.59,2.5 -2.641,9.17 z m -103.81,-83.01 7.44,-5 5.43,-1.13 14.77,-12.64 1.721,9.05 7.49,2.86 3.47,4.96 10.7,-0.64 5.159,-4.08 14.551,-1.64 1.21,3.67 11.09,-2.13 1.8,10.27 -7.27,1.28 -1.91,2 -5.181,-3.08 -5.21,0.03 -4.62,3.58 -4.88,0.07 -3.05,4.8 -3.28,-1.66 -5.05,3.35 -4.62,11.29 -4.1,-4.59 0.58,-6.2 -4.86,-4.34 -9.41,-1.16 -3.88,-1.94 -13.89,-2.86 z"
   id="path20926"
   style="fill:#984ea3;fill-opacity:1" />
	<path
   fill="#cb181d"
   stroke="#000000"
   stroke-width="2"
   stroke-miterlimit="10"
   d="m 134.24,75.17 0.39,-9.22 10.62,-46.76 12.23,2.66 -3.96,18.51 2.93,6.5 -0.92,5.22 4.28,4.03 3.45,8.24 4.29,5.19 2.94,0.53 -4.34,11.13 -2.08,8.75 2.71,2.06 4.85,-3.34 1.77,7.63 2.83,5.71 -0.37,4.15 3.62,2.18 0.67,5.82 19.66,1.78 3.74,-2.67 2.93,5.32 -7.45,46.87 -41.74,-7.19 -41.28,-8.73 7.72,-34.16 3.1,-5.8 -3.64,-5.46 7.7,-8.83 7.7,-11.74 z"
   id="path20928"
   style="fill:#4daf4a;fill-opacity:1" />
	<path
   fill="#2171b5"
   stroke="#000000"
   stroke-width="2"
   stroke-miterlimit="10"
   d="m 590.45,383.36 2.89,5.22 43.49,-2.9 3.74,-5.63 8.43,1 5.77,16.97 6.681,11.221 8.01,9.31 2.29,10.19 3.7,5.33 8.45,15.5 2.189,19.569 -2.649,4.36 0.439,8.71 -7.95,0.68 -4.43,1.99 -2.01,-5.189 -5.16,-6.24 -6.271,-1.521 -4.859,-9.38 -4.5,-0.09 -2.2,-5.04 -9.08,-11.71 -3.7,-7.47 -1.06,-5.98 2.439,-6.3 -1.52,-7.87 -2.75,-3.33 -6.23,-2.819 -9.979,-10.74 -6.75,-2.66 -3.62,1.31 -3.96,5.23 -7.43,5.16 -5.24,-0.8 -1.08,-4.891 -10.85,-5.53 -10.63,-1.32 -14.329,3.569 1.289,-7.34 -3.829,-6.18 27.779,-2.64 z"
   id="path20930"
   style="fill:#377eb8;fill-opacity:1" />
	<path
   fill="#2171b5"
   stroke="#000000"
   stroke-width="2"
   stroke-miterlimit="10"
   d="m 155.46,480.37 2.2,-3.5 6.64,6.8 -2.72,4.17 z m -7.49,-16.46 5.39,4.64 -2.48,2 z m -5.37,3.69 5.92,-1.14 -0.59,8.79 z m -68.34,7.16 8.68,-7.12 0.38,5.33 -2.05,4.09 -4.56,2.78 z m -31.72,-66.79 9.02,-3.02 4.05,3.72 6.47,-0.02 -2.02,-5.82 -7.9,-11.89 2.01,-3.421 4.95,0.91 4.58,-5.42 9.22,-5.1 7.04,-2.41 4.76,3.85 5.53,0.67 2.23,3.101 4.11,-0.86 11.56,3.74 3.28,-1.51 5.86,3.069 7.15,66.29 4.49,-0.779 8.47,6.689 9.32,-1.97 6.92,4.72 7.17,9.65 9.02,3.18 2.04,5.7 -1.57,4.01 -4.19,-0.12 -7.79,-8.989 1.8,-1.341 -8.9,-9.88 -3.84,-1.02 -5.11,2.64 -6.86,-4.75 -7.81,-3.66 -9.1,-2 -3.99,1.061 -4.3,-2.15 -6.37,0.4 -2.04,3.229 -5.7,-0.93 -4.78,4.33 -4.52,1.59 -0.47,-4.88 -2.86,-1.26 -5.75,5.22 -0.82,7.01 -8.6,4.271 -1.1,2.84 -8.12,3.42 -0.17,2.47 -24.11,4.93 10.82,-6.7 12.19,-4.521 5.7,-4.279 1.68,-6.351 -5.83,-0.51 -5.37,-4.601 -4.2,1.82 0.61,-10.84 -4.62,0.73 -5.23,-6.48 2.09,-11.52 5.13,-5.82 4.71,1.57 8.05,-3.341 1.18,-6.08 -7.29,0.15 -8.74,-3.78 z"
   id="path20932"
   style="fill:#377eb8;fill-opacity:1" />
	<path
   fill="#6a51a3"
   stroke="#000000"
   stroke-width="2"
   stroke-miterlimit="10"
   d="m 477.13,211.9 0.93,-4.58 3.091,-1.3 2.14,-5.53 -2.61,-5.57 1.061,-3.4 9.59,-3.91 2.01,-4.23 -0.07,-5.66 -7.229,-7.32 39.82,-2.53 -0.16,3.69 5.37,10.98 3.939,45.27 -0.96,4.84 2.45,6.44 -6.67,14.631 0.42,4.439 -0.01,6.029 -5.92,2.17 0.35,6.391 -7.11,-2.529 -2.689,4.93 -3.5,-0.91 -2.43,-5.28 -0.891,-7.12 -10.899,-6.98 -2.551,-4.26 3.221,-10.35 -8.101,-0.89 -1.43,-6.39 -9.8,-8.62 -2.51,-8.39 z"
   id="path20934"
   style="fill:#984ea3;fill-opacity:1" />
	<path
   fill="#6a51a3"
   stroke="#000000"
   stroke-width="2"
   stroke-miterlimit="10"
   d="m 157.48,21.85 29.4,5.98 27.49,4.86 31.48,4.71 37.29,4.55 25.38,2.41 -4.86,57.79 -1.7,18.03 -29.72,-2.81 -30.05,-3.73 -34.06,-5 -1.65,9.95 -2.93,-5.32 -3.74,2.67 -19.66,-1.78 -0.67,-5.82 -3.62,-2.18 0.37,-4.15 -2.83,-5.71 -1.77,-7.63 -4.85,3.34 -2.71,-2.06 2.08,-8.75 4.34,-11.13 -2.94,-0.53 -4.29,-5.19 -3.45,-8.24 -4.28,-4.03 0.92,-5.22 -2.93,-6.5 z"
   id="path20936"
   style="fill:#984ea3;fill-opacity:1" />
	<path
   fill="#6a51a3"
   stroke="#000000"
   stroke-width="2"
   stroke-miterlimit="10"
   d="m 395.24,48.58 26.42,0.09 -0.06,-7.27 4.28,1.15 1.69,10.01 3.189,1.77 12.601,2.52 6.52,-1.82 18.58,10.22 8.83,-4.06 1.95,2.7 7.3,-0.74 2.42,5.2 -11.29,5.86 -7.27,8.32 -7.66,6.72 0.689,1.83 -3.609,0.97 0.41,11.22 -5.561,3.84 -1.88,3.28 3.17,5.19 -1.44,2.98 -0.26,9.89 3.61,3.53 8.149,3.81 1.07,2.46 6.4,4.11 2.91,4.25 0.63,5.2 -22.851,0.97 -27.449,0.6 -22.12,0.08 0.109,-34.61 -4.91,-6.65 3.551,-5.34 -0.45,-7.33 -2.46,-6.07 -0.681,-17.78 -3.68,-11.35 0.72,-9.44 z"
   id="path20938"
   style="fill:#984ea3;fill-opacity:1" />
	<path
   fill="#2171b5"
   stroke="#000000"
   stroke-width="2"
   stroke-miterlimit="10"
   d="m 531.07,182.54 3.87,1.35 5.92,-3.27 28.479,-3.06 0.141,1.23 5.659,49.55 1,4.21 -5.46,4.41 -8.42,8.78 -1.06,5.039 -6.16,-1.659 -5.47,5.479 -6.74,1.631 -3.73,-1.65 -8.85,3.58 -0.42,-4.439 6.67,-14.631 -2.45,-6.44 0.96,-4.84 z"
   id="path20940"
   style="fill:#377eb8;fill-opacity:1" />
	<path
   fill="#6a51a3"
   stroke="#000000"
   stroke-width="2"
   stroke-miterlimit="10"
   d="m 725.89,130.1 11.04,-2.37 15.91,-3.53 5.57,-4.98 3.66,4.77 -3.2,5.38 4.05,1.79 2.19,4.39 6.34,4.84 -4.92,4.23 -5.37,1.22 -6.16,-8.73 -5.66,1.7 -23.33,5.03 z"
   id="path20942"
   style="fill:#984ea3;fill-opacity:1" />
	<path
   fill="#2171b5"
   stroke="#000000"
   stroke-width="2"
   stroke-miterlimit="10"
   d="m 322.93,217.92 32.51,1.72 40.77,1.03 24.74,0.07 6.569,4.76 -3.659,3.81 4.68,6.65 2.85,1.75 0.44,40.729 -43.1,-0.02 -29.46,-0.77 -39.89,-1.86 z"
   id="path20944"
   style="fill:#377eb8;fill-opacity:1" />
	<path
   fill="#6a51a3"
   stroke="#000000"
   stroke-width="2"
   stroke-miterlimit="10"
   d="m 75.12,139.78 40.89,9.76 41.28,8.73 -18.27,94.39 -2.88,15.26 -10.69,-0.34 -2.59,21.12 -62.17,-93.11 z"
   id="path20946"
   style="fill:#984ea3;fill-opacity:1" />
	<path
   fill="#6a51a3"
   stroke="#000000"
   stroke-width="2"
   stroke-miterlimit="10"
   d="m 714.57,88.17 24.15,-6.17 -0.35,5.36 1.81,4.38 -5.149,5.49 1.029,3.47 -2.06,11 2.93,16.03 -11.04,2.37 -3.279,-14.79 -4.91,-8.83 0.109,-7.87 -2.09,-3.02 z"
   id="path20948"
   style="fill:#984ea3;fill-opacity:1" />
	<path
   fill="#6a51a3"
   stroke="#000000"
   stroke-width="2"
   stroke-miterlimit="10"
   d="m 726.01,143.84 23.33,-5.03 2.49,13.02 -14.6,4.93 -8.79,7.55 0.09,-6.16 z"
   id="path20950"
   style="fill:#984ea3;fill-opacity:1" />
	<path
   fill="#6a51a3"
   stroke="#000000"
   stroke-width="2"
   stroke-miterlimit="10"
   d="m 708.76,192.21 8.37,-8.82 -8.33,-6.33 -0.96,-7.88 4.521,-8.46 12.72,4.15 -2.95,10.48 4.75,1.94 0.771,11.53 -2.71,8.45 -5.851,5.63 -10.689,-4.62 z"
   id="path20952"
   style="fill:#984ea3;fill-opacity:1" />
	<path
   fill="#2171b5"
   stroke="#000000"
   stroke-width="2"
   stroke-miterlimit="10"
   d="m 628.28,270.09 20.93,-2.48 26.81,-4.67 39.471,-8.109 4,7.75 6.02,8.87 0.4,7.21 -8.21,6.449 -4.51,8.791 -3.341,-1.43 -6.029,2.479 -6.63,6.67 -3.181,10.52 -9,1.75 -20.76,-14.89 -17.31,2.52 -4.771,-5.569 -21.15,2.17 -10.189,5.351 -18.69,2.659 0.03,-4.62 7.04,-7.4 4.19,-0.56 7.38,-5.26 2.47,-4.42 8.18,-4.41 2.86,0.25 z"
   id="path20954"
   style="fill:#377eb8;fill-opacity:1" />
	<path
   fill="#cb181d"
   stroke="#000000"
   stroke-width="2"
   stroke-miterlimit="10"
   d="m 157.29,158.27 41.74,7.19 -3.05,19.06 28.33,4.17 -7.33,51.96 -3.14,24.39 -33.46,-5.05 -41.36,-7.33 z"
   id="path20956"
   style="fill:#4daf4a;fill-opacity:1" />
	<path
   fill="#d94701"
   stroke="#000000"
   stroke-width="2"
   stroke-miterlimit="10"
   d="m 308.52,44.36 23.26,1.77 29.28,1.56 34.18,0.89 1.569,6.31 -0.72,9.44 3.68,11.35 0.681,17.78 2.46,6.07 0.45,7.33 -39.041,-0.93 -27.55,-1.38 -33.11,-2.4 z"
   id="path20958"
   style="fill:#e41a1c;fill-opacity:1" />
	<path
   fill="#2171b5"
   stroke="#000000"
   stroke-width="2"
   stroke-miterlimit="10"
   d="m 610.83,303.471 10.189,-5.351 21.15,-2.17 4.771,5.569 17.31,-2.52 20.76,14.89 -3.31,2.221 -4.41,7.909 -0.41,4.921 -10.56,12.54 -4.94,3.3 -7.33,9.819 -3.87,-0.909 -2.34,-6.45 -3.63,-2.16 -2.85,-7.51 -4.391,-1.98 -3.58,-5.5 -11.199,-7.729 -6.351,-9.32 -7.75,-3.021 z"
   id="path20960"
   style="fill:#377eb8;fill-opacity:1" />
	<path
   fill="#2171b5"
   stroke="#000000"
   stroke-width="2"
   stroke-miterlimit="10"
   d="m 488.01,353.43 1.32,-4.46 -2.62,-5.56 4.37,-13.601 4.79,-3.93 -0.4,-3.84 3.9,-7.55 32.729,-2.32 1.75,1.85 -1.26,57.08 3.58,29.7 -8.24,0.181 -10.09,4.789 -5.82,-10.069 1.421,-5.36 -31.181,1.8 3.79,-15.489 4.95,-6.04 z"
   id="path20962"
   style="fill:#377eb8;fill-opacity:1" />
	<path
   fill="#6a51a3"
   stroke="#000000"
   stroke-width="2"
   stroke-miterlimit="10"
   d="m 224.31,188.69 40.7,5.05 30.52,2.87 28.63,2.11 -1.23,19.2 -3.55,57.87 -14.5,-1.13 -26.13,-2.04 -26.3,-2.67 -38.61,-4.91 3.14,-24.39 z"
   id="path20964"
   style="fill:#984ea3;fill-opacity:1" />
	<path
   fill="#d94701"
   stroke="#000000"
   stroke-width="2"
   stroke-miterlimit="10"
   d="m 301.96,120.18 1.7,-18.03 33.11,2.4 27.55,1.38 39.041,0.93 -3.551,5.34 4.91,6.65 -0.109,34.61 0.159,7.42 -2.579,6.41 2.439,5.56 -3.52,-3.26 -7.51,-3.8 -8.66,-0.37 -1.32,1.8 -7.55,-4.57 -23.68,-0.82 -26.22,-1.45 -27.39,-2.06 z"
   id="path20966"
   style="fill:#e41a1c;fill-opacity:1" />
	<path
   fill="#2171b5"
   stroke="#000000"
   stroke-width="2"
   stroke-miterlimit="10"
   d="m 304.88,274.66 14.5,1.13 39.89,1.86 29.46,0.77 43.1,0.02 0.14,9.61 3.2,21.7 -0.31,33.29 -5.66,-1.87 -6.12,-4.21 -14.59,2.55 -3.351,2.63 -8.529,-4.909 -4.771,2.579 -7.3,-3.6 -3.11,2.67 -3.58,-4.97 -10.02,-0.771 -7.06,-1.819 -1.24,-3.351 -6.6,-0.14 -4.62,-3.64 1.57,-37.271 -45.71,-2.67 z"
   id="path20968"
   style="fill:#377eb8;fill-opacity:1" />
	<path
   fill="#cb181d"
   stroke="#000000"
   stroke-width="2"
   stroke-miterlimit="10"
   d="m 301.96,120.18 -3.18,38.14 -3.25,38.29 -30.52,-2.87 -40.7,-5.05 -28.33,-4.17 3.05,-19.06 7.45,-46.87 1.65,-9.95 34.06,5 30.05,3.73 z"
   id="path20970"
   style="fill:#4daf4a;fill-opacity:1" />
	<path
   fill="#d94701"
   stroke="#000000"
   stroke-width="2"
   stroke-miterlimit="10"
   d="m 609.5,237.15 3.89,-1.09 0.7,-6.99 4.19,-3.09 2.22,-7.04 7.45,-4.57 3.52,-5.68 1.59,-18.34 2.86,17.43 15.01,-2.55 1.561,9.8 4.819,-6.07 13.82,-6.45 3.93,0.89 2.561,4.72 -0.87,3.88 -8.69,-4.89 0.131,6.01 -4.28,5.97 -3.101,1.62 -2.92,8.81 -5.72,-2.42 -0.979,6.39 -5.54,12.46 0.47,2.8 -8.62,5.9 -9.27,3.39 -4.54,-0.84 -2.49,-4.55 -5.29,-2.11 -6.11,-7.85 z"
   id="path20972"
   style="fill:#e41a1c;fill-opacity:1" />
	<path
   fill="#6a51a3"
   stroke="#000000"
   stroke-width="2"
   stroke-miterlimit="10"
   d="m 742.73,75.16 3.3,-3.38 4.43,-10.32 -1.91,-5.31 1.78,-5.32 -0.64,-5.08 5.829,-16.72 5.48,3.91 5.81,-5.23 8.761,3.11 7.56,25.34 5.94,1.69 0.51,4.52 5.63,1.36 3.79,4.72 -3.21,5.39 -9.65,7.21 -2.609,6.2 -10.24,8.19 -10.28,6.53 -4.02,13.36 -5.351,-4.84 -0.81,-3.64 z"
   id="path20974"
   style="fill:#984ea3;fill-opacity:1" />
	<path
   fill="#6a51a3"
   stroke="#000000"
   stroke-width="2"
   stroke-miterlimit="10"
   d="m 247.4,473.55 4.01,-4.689 -1.19,-4.36 11.17,4.52 3.34,3 3.85,8 -11.31,5.711 -1.94,3.199 -5.45,-2.42 0.45,-4.74 z m -11.68,-21.7 8.17,-0.33 2.02,5.91 -5.4,0.561 -0.75,-3.66 z m -27.23,-12.8 4.71,-2.41 4.33,4.87 0.37,3.721 -7.18,-0.711 z m -27.4,-9.6 3.65,-2.95 5.07,2.01 -0.85,3.26 -4.73,1.03 z"
   id="path20976"
   style="fill:#984ea3;fill-opacity:1" />
	<path
   fill="#6a51a3"
   stroke="#000000"
   stroke-width="2"
   stroke-miterlimit="10"
   d="m 738.72,82 1.431,-6.09 2.58,-0.75 10.1,31.69 0.81,3.64 5.351,4.84 -0.58,3.89 -5.57,4.98 -15.91,3.53 -2.932,-16.03 2.06,-11 -1.029,-3.47 5.149,-5.49 -1.81,-4.38 z"
   id="path20978"
   style="fill:#984ea3;fill-opacity:1" />
	<path
   fill="#6a51a3"
   stroke="#000000"
   stroke-width="2"
   stroke-miterlimit="10"
   d="m 112.96,331.43 4.41,-1.6 -2.45,-4.25 0.7,-6.49 3.5,-2.74 1.24,-7.119 7.34,-5.041 -5.34,-13.06 0.5,-2.43 2.59,-21.12 10.69,0.34 2.88,-15.26 41.36,7.33 33.46,5.05 -14.97,107.79 -32.64,-4.86 -33.82,-19.57 -21.77,-13.051 z"
   id="path20980"
   style="fill:#984ea3;fill-opacity:1" />
	<path
   fill="#6a51a3"
   stroke="#000000"
   stroke-width="2"
   stroke-miterlimit="10"
   d="m 751.83,151.83 -2.49,-13.02 5.66,-1.7 6.16,8.73 z"
   id="path20982"
   style="fill:#984ea3;fill-opacity:1" />
</g>
<rect
   x="129.33406"
   y="498.28049"
   fill="#6a51a3"
   stroke="#000000"
   stroke-width="1.5621"
   stroke-miterlimit="10"
   width="25.339001"
   height="25"
   id="rect20985"
   style="fill:#984ea3;fill-opacity:1" />
<rect
   x="164.59406"
   y="503.28049"
   fill="none"
   width="106"
   height="25"
   id="rect20987" />
<text
   font-family="Gotham-Bold"
   font-size="20px"
   id="text20989"
   x="164.59406"
   y="517.88007">Catholic</text>
<rect
   x="271.96405"
   y="498.28049"
   fill="#2171b5"
   stroke="#000000"
   stroke-width="1.5621"
   stroke-miterlimit="10"
   width="25.339001"
   height="25"
   id="rect20991"
   style="fill:#377eb8;fill-opacity:1" />
<rect
   x="307.22406"
   y="502.78049"
   fill="none"
   width="151.84"
   height="25"
   id="rect20993" />
<text
   font-family="Gotham-Bold"
   font-size="20px"
   id="text20995"
   x="307.22397"
   y="517.38007">Evangelical</text>
<rect
   x="444.89008"
   y="498.28049"
   fill="#d04701"
   stroke="#000000"
   stroke-width="1.5621"
   stroke-miterlimit="10"
   width="25.339001"
   height="25"
   id="rect20997"
   style="fill:#e41a1c;fill-opacity:1" />
<rect
   x="484.00403"
   y="501.78049"
   fill="none"
   width="106"
   height="25"
   id="rect20999" />
<text
   font-family="Gotham-Bold"
   font-size="20px"
   id="text21001"
   x="484.00427"
   y="516.38007">Mainline</text>
<rect
   x="587.48407"
   y="498.28049"
   fill="#cb181d"
   stroke="#000000"
   stroke-width="1.5621"
   stroke-miterlimit="10"
   width="25.339001"
   height="25"
   id="rect21003"
   style="fill:#4daf4a;fill-opacity:1" />
<rect
   x="649.93408"
   y="504.28049"
   fill="none"
   width="106"
   height="25"
   id="rect21005" />
<text
   font-family="Gotham-Bold"
   font-size="20px"
   id="text21007"
   x="621.93384"
   y="516.88007">LDS</text>
<text
   xml:space="preserve"
   style="font-style:normal;font-weight:normal;font-size:32px;line-height:1.25;font-family:sans-serif;fill:#000000;fill-opacity:1;stroke:none"
   x="401.56625"
   y="569.84283"
   id="text21018"><tspan
     sodipodi:role="line"
     id="tspan21016"
     x="401.56625"
     y="569.84283"
     style="font-style:normal;font-variant:normal;font-weight:normal;font-stretch:normal;font-size:32px;font-family:sans-serif;-inkscape-font-specification:sans-serif;text-align:center;text-anchor:middle">Largest Christian Denomination by State</tspan></text></svg>
